<?xml version="1.0" encoding="UTF-8" standalone="no"?>
<!DOCTYPE svg  PUBLIC '-//W3C//DTD SVG 1.1//EN'  'http://www.w3.org/Graphics/SVG/1.1/DTD/svg11.dtd'>
<svg xmlns="http://www.w3.org/2000/svg">
<defs>
<font id="DINOffc-Regular" horiz-adv-x="522">
<font-face underline-position="-89" font-weight="400" descent="-200" panose-1="2 11 5 4 2 1 1 2 1 2" units-per-em="1000" unicode-range="U+0020-FB02" bbox="-104 -226 1115 985" x-height="492" underline-thickness="51" font-family="DINOffc" ascent="800" cap-height="712"/>
<missing-glyph horiz-adv-x="1000"/>
<glyph glyph-name=".notdef" horiz-adv-x="1000"/>
<glyph glyph-name=".null" horiz-adv-x="0"/>
<glyph glyph-name="nonmarkingreturn" horiz-adv-x="1000"/>
<glyph glyph-name="space" horiz-adv-x="249" unicode=" "/>
<glyph glyph-name="exclam" horiz-adv-x="316" unicode="!" d="M130 0v84h86v-84h-86zM204 200h-62l-10 512h83z"/>
<glyph glyph-name="quotedbl" horiz-adv-x="423" unicode='&quot;' d="M88 542v170h79v-170h-79zM256 542v170h79v-170h-79z"/>
<glyph glyph-name="numbersign" horiz-adv-x="653" unicode="#" d="M273 432l-23 -141h159l23 141h-159zM506 432l-23 -141h89v-64h-99l-36 -227h-74l36 227h-160l-35 -227h-74l36 227h-89v64h100l23 141h-92v66h101l34 215h75l-35 -215h159l34 215h73l-34 -215h87v-66h-96z"/>
<glyph glyph-name="dollar" horiz-adv-x="596" unicode="$" d="M266 651q-63 -5 -96.5 -40t-33.5 -91q0 -54 32 -82q21 -17 46.5 -26t51.5 -13v252zM464 194q0 28 -9 51t-26 38q-25 22 -51.5 27t-58.5 10v-257q68 5 106.5 39t38.5 92zM540 196q0 -44 -15.5 -79t-44 -61t-69 -41.5t-89.5 -18.5v-110h-60v108q-71 3 -122 25t-98 69l52 52 q40 -40 80.5 -57.5t91.5 -19.5v265l-20 2q-41 4 -75 20t-55 34q-55 49 -55 133q0 85 53.5 138.5t147.5 61.5v89h60v-89q58 -3 101 -21.5t85 -55.5l-49 -49q-29 26 -61.5 41.5t-78.5 18.5v-259l31 -5q25 -4 44 -8.5t34 -10.5t27.5 -13.5t23.5 -17.5q29 -25 45 -60.5t16 -80.5 z"/>
<glyph glyph-name="percent" horiz-adv-x="833" unicode="%" d="M280 0h-60l334 712h60zM769 127q0 -62 -38 -98t-97 -36t-97 36t-38 98v105q0 63 38 99t97 36t97 -36t38 -99v-105zM711 230q0 41 -17.5 64t-59.5 23t-60 -23t-18 -64v-100q0 -42 18 -64.5t60 -22.5t59.5 22.5t17.5 64.5v100zM335 479q0 -63 -38 -98.5t-97 -35.5t-97 35.5 t-38 98.5v105q0 63 38 99t97 36t97 -36t38 -99v-105zM277 582q0 41 -17.5 64t-59.5 23t-60 -23t-18 -64v-101q0 -41 18 -63.5t60 -22.5t59.5 22.5t17.5 63.5v101z"/>
<glyph glyph-name="ampersand" horiz-adv-x="739" unicode="&amp;" d="M395 568q0 36 -24 60.5t-60 24.5q-37 0 -59.5 -23.5t-22.5 -59.5q0 -25 14.5 -49.5t49.5 -67.5l38 26q25 17 44.5 37.5t19.5 51.5zM273 366q-23 -16 -45 -32t-39 -35t-27.5 -42.5t-10.5 -53.5q0 -32 11 -58t31 -45t47.5 -29t60.5 -10q40 0 81 14t87 55zM576 0l-64 78 q-11 -10 -29 -24.5t-44 -27.5t-60 -22.5t-77 -9.5q-52 0 -93.5 15t-71 42t-45 65t-15.5 85q0 40 13 71t34.5 56t49.5 45.5t57 40.5q-13 16 -26.5 33t-25 36t-18.5 40.5t-7 45.5q0 32 11.5 59t32.5 47t50 31.5t63 11.5q33 0 61.5 -11.5t49.5 -31.5t32.5 -47.5t11.5 -59.5 q0 -43 -22.5 -73.5t-56.5 -53.5l-53 -36l182 -219q11 16 18.5 32.5t12 35.5t7 42t2.5 53h72q-1 -68 -16 -122t-50 -96l109 -131h-95z"/>
<glyph glyph-name="quotesingle" horiz-adv-x="255" unicode="&apos;" d="M88 542v170h79v-170h-79z"/>
<glyph glyph-name="parenleft" horiz-adv-x="298" unicode="(" d="M185 -94q-26 26 -42.5 44.5t-29.5 41.5q-14 26 -17.5 50.5t-3.5 52.5v522q0 27 3.5 52.5t17.5 50.5q13 23 29.5 41.5t42.5 44.5l51 -51q-20 -19 -33 -33t-22 -32q-8 -15 -11 -34.5t-3 -44.5v-510q0 -25 2.5 -43t11.5 -36t22 -32t33 -33z"/>
<glyph glyph-name="parenright" horiz-adv-x="298" unicode=")" d="M61 -43q20 19 33 33t22 32t11.5 36t2.5 43v510q0 25 -3 44.5t-11 34.5q-9 18 -22 32t-33 33l51 51q26 -26 42.5 -44.5t29.5 -41.5q14 -25 17.5 -50.5t3.5 -52.5v-522q0 -28 -3.5 -52.5t-17.5 -50.5q-13 -23 -29.5 -41.5t-42.5 -44.5z"/>
<glyph glyph-name="asterisk" horiz-adv-x="474" unicode="*" d="M379 423l-117 71l4 -137h-58l4 137l-116 -71l-29 49l120 65l-120 66l29 48l116 -71l-4 137h58l-4 -137l117 71l28 -48l-120 -66l120 -65z"/>
<glyph glyph-name="plus" d="M295 234v-176h-67v176h-176v67h176v174h67v-174h175v-67h-175z" unicode="+"/>
<glyph glyph-name="comma" horiz-adv-x="264" unicode="," d="M88 -144v232h88v-153z"/>
<glyph glyph-name="hyphen" horiz-adv-x="426" unicode="-" d="M76 236v67h274v-67h-274z"/>
<glyph glyph-name="period" horiz-adv-x="270" unicode="." d="M88 0v94h94v-94h-94z"/>
<glyph glyph-name="slash" horiz-adv-x="355" unicode="/" d="M71 -74h-71l285 860h71z"/>
<glyph glyph-name="zero" d="M384 518q0 59 -31.5 97.5t-91.5 38.5t-91.5 -38.5t-31.5 -97.5v-324q0 -59 31.5 -97.5t91.5 -38.5t91.5 38.5t31.5 97.5v324zM456 190q0 -44 -15 -80.5t-41 -62t-61.5 -39.5t-77.5 -14t-77.5 14t-62 39.5t-41 62t-14.5 80.5v332q0 44 14.5 80.5t41 62t62 39.5t77.5 14 t77.5 -14t61.5 -39.5t41 -62t15 -80.5v-332z" unicode="0"/>
<glyph glyph-name="one" d="M258 0v632l-133 -117v82l133 115h72v-712h-72z" unicode="1"/>
<glyph glyph-name="two" d="M68 0v64l281 357q20 26 30 51t10 54q0 58 -32.5 93t-91.5 35q-25 0 -47.5 -7t-39.5 -23t-27 -40.5t-10 -58.5h-72q0 42 14 77.5t39.5 61t61.5 40t81 14.5q44 0 80 -13.5t62 -38.5t40 -60.5t14 -79.5q0 -43 -14 -74.5t-43 -69.5l-249 -318h306v-64h-393z" unicode="2"/>
<glyph glyph-name="three" d="M460 194q0 -49 -16.5 -86.5t-44.5 -63t-66.5 -38.5t-81.5 -13q-42 0 -79 11t-65 34.5t-45.5 59t-19.5 83.5h72q2 -33 14 -56.5t31 -38.5t42.5 -22t49.5 -7q58 0 97.5 36t39.5 102q0 65 -33.5 101.5t-106.5 36.5h-15v63h15q66 0 96.5 34.5t30.5 94.5q0 64 -36 97t-88 33 q-57 0 -90 -32t-38 -87h-72q3 43 19.5 77t43 57.5t61.5 36t76 12.5q43 0 79.5 -14t62 -39t40 -61t14.5 -79q0 -115 -96 -158q109 -41 109 -174z" unicode="3"/>
<glyph glyph-name="four" d="M395 113v-113h-71v113h-284v65l257 534h77l-257 -534h207v202h71v-202h87v-65h-87z" unicode="4"/>
<glyph glyph-name="five" d="M462 235q0 -54 -9.5 -102.5t-47.5 -86.5q-25 -25 -59.5 -39t-82.5 -14q-47 0 -83.5 14t-59.5 37q-23 24 -35 55t-15 69h72q7 -54 35.5 -82.5t85.5 -28.5q55 0 88 33q14 14 22 31t11.5 36t4.5 39t1 39q0 33 -4.5 64t-17 55t-36 39t-62.5 15q-47 0 -77 -19t-41 -51h-65v374 h360v-64h-295v-226q21 23 53.5 36t74.5 13q40 0 71 -12t52 -33q19 -20 31 -42.5t18 -47.5t8 -50.5t2 -50.5z" unicode="5"/>
<glyph glyph-name="six" d="M388 202q0 30 -8 56t-24 45.5t-39.5 31t-54.5 11.5q-57 0 -91 -39t-34 -105t34 -105t91 -39t91.5 39t34.5 105zM460 205q0 -45 -14 -84t-39.5 -67t-62 -44t-81.5 -16t-82 14.5t-62.5 41.5t-39.5 65t-14 84q0 38 11 76.5t34 83.5l175 353h74l-159 -320q33 15 75 15t76 -15 t58 -42t37.5 -64t13.5 -81z" unicode="6"/>
<glyph glyph-name="seven" d="M224 0h-76l247 648h-248v-112h-71v176h395v-64z" unicode="7"/>
<glyph glyph-name="eight" d="M385 526q0 56 -34.5 92t-89.5 36t-89.5 -36t-34.5 -92q0 -57 34.5 -92t89.5 -35t89.5 35t34.5 92zM399 197q0 30 -10.5 55t-29 44t-44 29.5t-54.5 10.5t-54.5 -10.5t-44 -29.5t-29 -44t-10.5 -55t10.5 -55t29 -44t44 -29.5t54.5 -10.5t54.5 10.5t44 29.5t29 44t10.5 55z M471 196q0 -45 -16 -82t-44.5 -64t-67 -41.5t-82.5 -14.5t-82.5 14.5t-67 41.5t-44.5 64t-16 82q0 63 31 105t76 68q-42 24 -67.5 63t-25.5 95q0 42 14.5 77t41 60.5t62.5 39.5t78 14t78 -14t62.5 -39.5t41 -60.5t14.5 -77q0 -56 -25 -95t-67 -63q45 -26 75.5 -68t30.5 -105 z" unicode="8"/>
<glyph glyph-name="nine" d="M385 510q0 66 -34.5 105t-91.5 39t-91 -39t-34 -105q0 -30 8 -56t23.5 -45.5t39 -31t54.5 -11.5q57 0 91.5 39t34.5 105zM457 513q0 -38 -11 -76.5t-34 -83.5l-175 -353h-75l160 320q-33 -15 -76 -15q-42 0 -76 15t-58 42t-37 64t-13 81q0 45 14 84t39.5 67t62 44 t81.5 16t82 -14.5t62.5 -41.5t39.5 -65t14 -84z" unicode="9"/>
<glyph glyph-name="colon" horiz-adv-x="297" unicode=":" d="M115 0v94h94v-94h-94zM115 301v94h94v-94h-94z"/>
<glyph glyph-name="semicolon" horiz-adv-x="297" unicode=";" d="M115 301v94h94v-94h-94zM117 -144v232h88v-153z"/>
<glyph glyph-name="less" d="M95 236v66l331 168v-77l-250 -124l250 -124v-77z" unicode="&lt;"/>
<glyph glyph-name="equal" d="M52 151v66h418v-66h-418zM52 320v67h418v-67h-418z" unicode="="/>
<glyph glyph-name="greater" d="M95 68v77l250 124l-250 124v77l331 -168v-66z" unicode="&gt;"/>
<glyph glyph-name="question" horiz-adv-x="497" unicode="?" d="M227 0v84h86v-84h-86zM451 536q0 -35 -12.5 -63.5t-32.5 -57.5l-82 -118q-9 -14 -13.5 -30t-4.5 -28v-39h-72v40q0 29 7.5 50t23.5 44l81 117q14 21 23.5 40t9.5 45q0 51 -32 84.5t-83 33.5q-27 0 -48.5 -9.5t-36.5 -26t-23 -38t-8 -45.5h-72q0 38 14 71.5t39.5 58 t59.5 39t75 14.5q39 0 73.5 -13.5t59.5 -37.5t39.5 -57.5t14.5 -73.5z"/>
<glyph glyph-name="at" horiz-adv-x="713" unicode="@" d="M571 238q0 35 -4 68t-17 58.5t-37 41t-63 15.5t-63 -15.5t-37 -41t-17 -58.5t-4 -68t4 -68t17 -58.5t37 -41t63 -15.5t63 15.5t37 41t17 58.5t4 68zM572 0v55q-25 -32 -56.5 -47t-77.5 -15q-42 0 -77.5 16t-58.5 45q-26 31 -35 73.5t-9 110.5q0 66 9 109t32 74 q22 29 58 45.5t80 16.5t76 -15.5t58 -47.5v78q0 40 -8.5 65.5t-30.5 48.5q-21 21 -48.5 30.5t-62.5 9.5h-130q-35 0 -61 -9t-48 -31q-23 -23 -31.5 -47.5t-8.5 -66.5v-337q0 -24 2.5 -41t9 -30.5t17.5 -25t28 -24.5l-49 -49q-23 17 -38 33t-24 35t-12.5 43.5t-3.5 57.5v336 q0 104 56 161q55 56 154 56h148q98 0 154 -56q57 -57 57 -161v-496h-69z"/>
<glyph glyph-name="A" horiz-adv-x="611" unicode="A" d="M307 603l-134 -376h266zM518 0l-57 161h-311l-57 -161h-81l262 712h64l261 -712h-81z"/>
<glyph glyph-name="B" horiz-adv-x="668" unicode="B" d="M505 521q0 32 -11 55t-29.5 38t-44 22.5t-55.5 7.5h-186v-247h186q30 0 55.5 7.5t44 22.5t29.5 38.5t11 55.5zM516 199q0 60 -38.5 95t-104.5 35h-194v-261h194q66 0 104.5 35.5t38.5 95.5zM592 197q0 -48 -15.5 -85t-43.5 -62t-67 -37.5t-86 -12.5h-277v712h268 q46 0 85 -13t66.5 -37.5t43 -59.5t15.5 -80q0 -57 -30 -98t-75 -58q51 -19 83.5 -62t32.5 -107z"/>
<glyph glyph-name="C" horiz-adv-x="637" unicode="C" d="M572 206q-19 -100 -84.5 -156t-162.5 -56q-56 0 -100.5 18.5t-77.5 51.5q-25 25 -39.5 51t-21.5 59t-8.5 77t-1.5 105t1.5 105t8.5 77t21.5 59t39.5 51q33 33 77.5 51.5t100.5 18.5q97 0 162.5 -56t84.5 -156h-78q-14 66 -58 105t-111 39q-73 0 -123 -50q-17 -17 -27 -37 t-15 -47.5t-6.5 -66t-1.5 -93.5t1.5 -93.5t6.5 -66t15 -47.5t27 -37q50 -50 123 -50q67 0 112 39t59 105h76z"/>
<glyph glyph-name="D" horiz-adv-x="673" unicode="D" d="M521 356q0 37 -1 71.5t-5.5 65t-14 56t-26.5 43.5q-27 30 -63 41t-77 11h-155v-576h155q41 0 77 11t63 41q17 18 26.5 43.5t14 56t5.5 65t1 71.5zM597 356q0 -41 -1 -80.5t-7 -75.5t-18.5 -68t-36.5 -57q-36 -39 -81.5 -57t-105.5 -18h-244v712h244q60 0 105.5 -18 t81.5 -57q24 -26 36.5 -57.5t18.5 -67.5t7 -75.5t1 -80.5z"/>
<glyph glyph-name="E" horiz-adv-x="600" unicode="E" d="M103 0v712h442v-68h-366v-251h312v-68h-312v-257h366v-68h-442z"/>
<glyph glyph-name="F" horiz-adv-x="580" unicode="F" d="M179 644v-262h312v-68h-312v-314h-76v712h442v-68h-366z"/>
<glyph glyph-name="G" horiz-adv-x="650" unicode="G" d="M576 259q0 -31 -3 -56t-10 -47t-19 -41.5t-29 -38.5q-38 -42 -86.5 -62t-103.5 -20q-56 0 -100.5 18.5t-77.5 51.5q-25 25 -39.5 51t-21.5 59t-8.5 77t-1.5 105t1.5 105t8.5 77t21.5 59t39.5 51q33 33 77.5 51.5t100.5 18.5q50 0 92.5 -16t74.5 -44.5t53 -67.5t29 -85 h-76q-15 69 -60.5 107t-112.5 38q-75 0 -123 -50q-17 -17 -27 -37t-15 -47.5t-6.5 -66t-1.5 -93.5t1.5 -93.5t6.5 -66t15 -47.5t27 -37q48 -50 123 -50q39 0 74.5 15.5t60.5 45.5q22 27 31 57.5t9 71.5v55h-175v65h251v-113z"/>
<glyph glyph-name="H" horiz-adv-x="696" unicode="H" d="M517 0v325h-338v-325h-76v712h76v-319h338v319h76v-712h-76z"/>
<glyph glyph-name="I" horiz-adv-x="282" unicode="I" d="M103 0v712h76v-712h-76z"/>
<glyph glyph-name="J" horiz-adv-x="501" unicode="J" d="M408 216q0 -51 -16.5 -92.5t-46 -70t-70 -44t-89.5 -15.5q-51 0 -90.5 15.5t-72.5 48.5l51 51q19 -20 43.5 -33.5t68.5 -13.5q70 0 108 42.5t38 121.5v486h76v-496z"/>
<glyph glyph-name="K" horiz-adv-x="650" unicode="K" d="M546 0l-217 379l-150 -180v-199h-76v712h76v-409l332 409h93l-224 -275l256 -437h-90z"/>
<glyph glyph-name="L" horiz-adv-x="573" unicode="L" d="M103 0v712h76v-644h364v-68h-440z"/>
<glyph glyph-name="M" horiz-adv-x="816" unicode="M" d="M637 0v541l-195 -429h-65l-198 429v-541h-76v712h76l232 -505l226 505h76v-712h-76z"/>
<glyph glyph-name="N" horiz-adv-x="732" unicode="N" d="M557 0l-378 571v-571h-76v712h72l378 -569v569h76v-712h-72z"/>
<glyph glyph-name="O" horiz-adv-x="650" unicode="O" d="M498 356q0 55 -1.5 93.5t-6.5 66t-15 47.5t-27 37q-50 50 -123 50t-123 -50q-17 -17 -27 -37t-15 -47.5t-6.5 -66t-1.5 -93.5t1.5 -93.5t6.5 -66t15 -47.5t27 -37q50 -50 123 -50t123 50q17 17 27 37t15 47.5t6.5 66t1.5 93.5zM574 356q0 -61 -2 -105t-9 -77t-21.5 -59 t-39.5 -51q-33 -33 -77 -51.5t-100 -18.5t-100.5 18.5t-77.5 51.5q-25 25 -39.5 51t-21.5 59t-8.5 77t-1.5 105t1.5 105t8.5 77t21.5 59t39.5 51q33 33 77.5 51.5t100.5 18.5t100 -18.5t77 -51.5q25 -25 39.5 -51t21.5 -59t9 -77t2 -105z"/>
<glyph glyph-name="P" horiz-adv-x="630" unicode="P" d="M512 503q0 71 -41.5 106t-108.5 35h-183v-283h183q67 0 108.5 35.5t41.5 106.5zM588 503q0 -48 -16 -86.5t-45.5 -66t-70 -42.5t-88.5 -15h-189v-293h-76v712h265q48 0 88.5 -15t70 -42t45.5 -65.5t16 -86.5z"/>
<glyph glyph-name="Q" horiz-adv-x="649" unicode="Q" d="M498 356q0 55 -1.5 93.5t-6.5 66t-15 47.5t-27 37q-24 25 -55.5 37.5t-67.5 12.5t-67.5 -12.5t-55.5 -37.5q-17 -17 -27 -37t-15 -47.5t-6.5 -66t-1.5 -93.5t1.5 -93.5t6.5 -66t15 -47.5t27 -37q24 -25 55.5 -37.5t67.5 -12.5q29 0 54 8t47 26l-90 90l46 46l86 -87 q10 16 16 35t9 44t4 57.5t1 74.5zM574 356q0 -54 -1 -94t-6 -71t-15 -55.5t-27 -46.5l78 -78l-46 -46l-79 78q-29 -23 -68 -36t-85 -13q-56 0 -100.5 18.5t-77.5 51.5q-25 25 -39.5 51t-21.5 59t-8.5 77t-1.5 105t1.5 105t8.5 77t21.5 59t39.5 51q33 33 77.5 51.5 t100.5 18.5t100 -18.5t77 -51.5q25 -25 39.5 -51t21.5 -59t9 -77t2 -105z"/>
<glyph glyph-name="R" horiz-adv-x="656" unicode="R" d="M511 513q0 66 -39.5 98.5t-102.5 32.5h-190v-261h190q63 0 102.5 32t39.5 98zM512 0l-162 316h-171v-316h-76v712h273q46 0 85 -13.5t67 -39t43.5 -62.5t15.5 -83q0 -78 -43 -127.5t-112 -63.5l169 -323h-89z"/>
<glyph glyph-name="S" horiz-adv-x="588" unicode="S" d="M532 196q0 -47 -17.5 -84.5t-49.5 -63.5t-77.5 -40t-101.5 -14q-40 0 -73.5 5.5t-63 16.5t-55.5 29t-51 43l51 51q44 -44 89 -60.5t105 -16.5q79 0 124 34.5t45 97.5q0 58 -35 89q-8 7 -16.5 12.5t-19 9.5t-24.5 7t-33 6l-83 12q-84 13 -130 54q-55 49 -55 134 q0 45 16 82t45.5 63.5t71.5 40.5t95 14q68 0 117 -19t95 -59l-49 -49q-32 31 -71 46.5t-95 15.5q-72 0 -111.5 -36.5t-39.5 -96.5q0 -55 32 -83q17 -14 41 -23t52 -14l83 -13q49 -8 77 -18.5t52 -32.5q29 -25 44.5 -60t15.5 -80z"/>
<glyph glyph-name="T" horiz-adv-x="548" unicode="T" d="M312 644v-644h-76v644h-206v68h488v-68h-206z"/>
<glyph glyph-name="U" horiz-adv-x="683" unicode="U" d="M590 235q0 -53 -18.5 -97.5t-52 -76.5t-79 -49.5t-99.5 -17.5t-99.5 17.5t-78.5 49.5t-51.5 76.5t-18.5 97.5v477h76v-471q0 -41 12 -74t34.5 -56t54.5 -36t71 -13t71 13t54.5 36t35 56t12.5 74v471h76v-477z"/>
<glyph glyph-name="V" horiz-adv-x="546" unicode="V" d="M304 0h-62l-234 712h80l185 -576l185 576h80z"/>
<glyph glyph-name="W" horiz-adv-x="854" unicode="W" d="M656 0h-71l-158 570l-158 -570h-71l-182 712h81l139 -574l157 574h68l157 -574l139 574h81z"/>
<glyph glyph-name="X" horiz-adv-x="551" unicode="X" d="M448 0l-173 299l-174 -299h-86l218 365l-204 347h88l158 -281l158 281h88l-205 -347l220 -365h-88z"/>
<glyph glyph-name="Y" horiz-adv-x="514" unicode="Y" d="M296 294v-294h-76v294l-212 418h82l168 -341l166 341h82z"/>
<glyph glyph-name="Z" horiz-adv-x="556" unicode="Z" d="M57 0v72l356 572h-342v68h428v-64l-359 -580h359v-68h-442z"/>
<glyph glyph-name="bracketleft" horiz-adv-x="313" unicode="[" d="M92 -74v860h177v-64h-105v-732h105v-64h-177z"/>
<glyph glyph-name="backslash" horiz-adv-x="355" unicode="\" d="M284 -74l-284 857h71l284 -857h-71z"/>
<glyph glyph-name="bracketright" horiz-adv-x="313" unicode="]" d="M44 -74v62h108v736h-108v62h177v-860h-177z"/>
<glyph glyph-name="asciicircum" horiz-adv-x="537" unicode="^" d="M391 413l-122 228l-123 -228h-74l164 305h66l163 -305h-74z"/>
<glyph glyph-name="underscore" horiz-adv-x="537" unicode="_" d="M0 -165v51h537v-51h-537z"/>
<glyph glyph-name="grave" horiz-adv-x="500" unicode="`" d="M230 594l-105 153h83l91 -153h-69z"/>
<glyph glyph-name="a" horiz-adv-x="526" unicode="a" d="M369 227h-137q-111 0 -111 -87q0 -43 27 -63.5t87 -20.5q31 0 58 5.5t51 27.5q25 24 25 85v53zM369 0v47q-29 -29 -61 -41t-81 -12q-51 0 -82 10t-57 35q-19 18 -28 44.5t-9 55.5q0 66 44 104t127 38h147v47q0 54 -28.5 81t-97.5 27q-47 0 -74 -13t-50 -44l-49 45 q32 43 72.5 58.5t101.5 15.5q100 0 148.5 -42t48.5 -122v-334h-72z"/>
<glyph glyph-name="b" horiz-adv-x="545" unicode="b" d="M409 246q0 36 -4 70t-17 60t-37.5 42t-64.5 16q-41 0 -65 -16t-37.5 -42t-17.5 -60t-4 -70t4 -70t17.5 -60t37.5 -42t65 -16q40 0 64.5 16t37.5 42t17 60t4 70zM481 246q0 -60 -11.5 -115.5t-48.5 -93.5q-20 -20 -51 -31.5t-69 -11.5q-42 0 -75 13t-64 52v-59h-72v712h72 v-277q31 38 64.5 50.5t74.5 12.5q38 0 69 -11.5t51 -31.5q18 -18 30 -42t18.5 -51t9 -56.5t2.5 -59.5z"/>
<glyph glyph-name="c" horiz-adv-x="490" unicode="c" d="M443 67q-38 -41 -74.5 -57t-87.5 -16q-47 0 -86.5 15.5t-69 47t-46 79t-16.5 110.5t16.5 110t46 78.5t69 47.5t86.5 16q51 0 87.5 -16t74.5 -57l-49 -46q-28 31 -53 43t-60 12q-36 0 -65 -14t-49 -42q-17 -24 -24.5 -54.5t-7.5 -77.5t7.5 -77.5t24.5 -54.5q20 -28 49 -42 t65 -14q35 0 60 12.5t53 43.5z"/>
<glyph glyph-name="d" horiz-adv-x="545" unicode="d" d="M383 246q0 36 -4 70t-17 60t-37.5 42t-64.5 16q-41 0 -65 -16t-37.5 -42t-17.5 -60t-4 -70t4 -70t17.5 -60t37.5 -42t65 -16q40 0 64.5 16t37.5 42t17 60t4 70zM384 0v59q-31 -39 -64.5 -52t-75.5 -13q-38 0 -69 11.5t-51 31.5q-37 38 -48.5 93.5t-11.5 115.5 q0 30 2.5 59.5t9 56.5t18.5 51t30 42q20 20 51 31.5t69 11.5q42 0 75 -12.5t64 -50.5v277h72v-712h-71z"/>
<glyph glyph-name="e" horiz-adv-x="530" unicode="e" d="M396 281q-1 15 -2 26t-2.5 20t-4.5 17.5t-7 18.5q-16 34 -45.5 54t-69.5 20t-69.5 -20t-45.5 -54q-5 -10 -7.5 -18.5t-4 -17.5t-2 -20t-1.5 -26h261zM135 227q0 -81 36.5 -125.5t108.5 -44.5q43 0 71.5 13.5t57.5 42.5l49 -43q-19 -19 -37.5 -33t-40 -23.5t-46.5 -14.5 t-56 -5q-49 0 -89 15t-68 46t-43 78.5t-15 112.5q0 121 54 186.5t148 65.5q97 0 149.5 -63.5t52.5 -175.5v-32h-332z"/>
<glyph glyph-name="f" horiz-adv-x="314" unicode="f" d="M178 437v-437h-72v437h-63v55h63v90q0 27 7.5 51t23.5 42t39 28.5t55 10.5h52v-62h-39q-35 0 -50.5 -19t-15.5 -53v-88h105v-55h-105z"/>
<glyph glyph-name="g" horiz-adv-x="543" unicode="g" d="M381 250q0 34 -4 67.5t-17 59t-37 41.5t-64 16t-64.5 -16t-37.5 -41.5t-17 -59t-4 -67.5q0 -35 4 -68t17 -58.5t37.5 -41.5t64.5 -16t64 16t37 41.5t17 58.5t4 68zM453 -15q0 -46 -14 -84.5t-40 -66.5t-64.5 -44t-86.5 -16q-28 0 -50 3.5t-41.5 11.5t-38 20.5t-37.5 30.5 l47 46q13 -12 25.5 -21t26 -15.5t29.5 -9.5t37 -3q36 0 61.5 12t42 32t24 47.5t7.5 59.5v77q-30 -38 -64 -51t-74 -13q-38 0 -68.5 12t-50.5 32q-37 37 -48.5 91t-11.5 114t11.5 114t48.5 91q20 20 51 31.5t69 11.5q41 0 74.5 -12.5t63.5 -51.5v58h71v-507z"/>
<glyph glyph-name="h" horiz-adv-x="562" unicode="h" d="M405 0v304q0 66 -31.5 98t-88.5 32t-90 -32t-33 -98v-304h-72v712h72v-274q54 60 138 60q85 0 131 -49t46 -133v-316h-72z"/>
<glyph glyph-name="i" horiz-adv-x="252" unicode="i" d="M86 632v81h81v-81h-81zM90 0v492h72v-492h-72z"/>
<glyph glyph-name="j" horiz-adv-x="253" unicode="j" d="M86 632v81h81v-81h-81zM162 -89q0 -28 -7.5 -52t-23 -42t-39 -28t-55.5 -10h-52v63h39q38 0 52 18t14 54v578h72v-581z"/>
<glyph glyph-name="k" horiz-adv-x="536" unicode="k" d="M414 0l-156 252l-96 -110v-142h-72v712h72v-476l222 256h90l-167 -188l196 -304h-89z"/>
<glyph glyph-name="l" horiz-adv-x="294" unicode="l" d="M213 0q-65 0 -95 37.5t-30 93.5v581h72v-578q0 -36 14 -54t52 -18h39v-62h-52z"/>
<glyph glyph-name="m" horiz-adv-x="879" unicode="m" d="M722 0v303q0 66 -32.5 98.5t-88.5 32.5q-54 0 -88.5 -32t-34.5 -91v-311h-72v303q0 66 -32.5 98.5t-88.5 32.5t-89.5 -33t-33.5 -98v-303h-72v492h72v-54q26 30 61.5 45t77.5 15q51 0 89.5 -20.5t61.5 -61.5q58 82 162 82q40 0 72 -12t55 -34q53 -51 53 -137v-315h-72z "/>
<glyph glyph-name="n" horiz-adv-x="562" unicode="n" d="M405 0v303q0 66 -32.5 98.5t-88.5 32.5t-89 -33t-33 -98v-303h-72v492h72v-54q26 30 61 45t77 15q80 0 126 -46q51 -50 51 -137v-315h-72z"/>
<glyph glyph-name="o" horiz-adv-x="530" unicode="o" d="M394 246q0 42 -6 83.5t-33 68.5q-36 36 -90 36q-53 0 -89 -36q-27 -27 -33.5 -68.5t-6.5 -83.5q0 -21 1 -42t5 -41t12 -37.5t22 -31.5q36 -36 89 -36q54 0 90 36q27 28 33 69t6 83zM466 246q0 -57 -11.5 -107.5t-48.5 -88.5q-26 -26 -61 -41t-80 -15t-80 15t-61 41 q-19 19 -30.5 41.5t-18 47t-9 51.5t-2.5 56q0 57 11 107.5t49 88.5q26 26 61 41t80 15t80 -15t61 -41q38 -38 49 -88.5t11 -107.5z"/>
<glyph glyph-name="p" horiz-adv-x="545" unicode="p" d="M409 246q0 36 -4 70t-17 60t-37.5 42t-64.5 16q-41 0 -65 -16t-37.5 -42t-17.5 -60t-4 -70t4 -70t17.5 -60t37.5 -42t65 -16q40 0 64.5 16t37.5 42t17 60t4 70zM481 246q0 -60 -11.5 -115.5t-48.5 -93.5q-20 -20 -51 -31.5t-69 -11.5q-41 0 -74.5 13t-64.5 51v-278h-72 v712h72v-58q31 38 64 51t75 13q38 0 69 -11.5t51 -31.5q18 -18 30 -42t18.5 -51t9 -56.5t2.5 -59.5z"/>
<glyph glyph-name="q" horiz-adv-x="545" unicode="q" d="M383 246q0 36 -4 70t-17 60t-37.5 42t-64.5 16q-41 0 -65 -16t-37.5 -42t-17.5 -60t-4 -70t4 -70t17.5 -60t37.5 -42t65 -16q40 0 64.5 16t37.5 42t17 60t4 70zM383 -220v278q-31 -38 -64 -51t-75 -13q-38 0 -69 11.5t-51 31.5q-37 38 -48.5 93.5t-11.5 115.5 q0 30 2.5 59.5t9 56.5t18.5 51t30 42q20 20 51 31.5t69 11.5q42 0 75.5 -13t64.5 -51v58h71v-712h-72z"/>
<glyph glyph-name="r" horiz-adv-x="421" unicode="r" d="M365 398q-20 20 -38 28t-47 8q-27 0 -49 -10t-37 -28t-23.5 -42t-8.5 -52v-302h-72v492h72v-60q20 31 57.5 48.5t80.5 17.5q35 0 63.5 -10t54.5 -36z"/>
<glyph glyph-name="s" horiz-adv-x="496" unicode="s" d="M445 144q0 -71 -55 -110.5t-145 -39.5q-63 0 -112.5 16t-89.5 55l48 48q29 -30 68 -43.5t85 -13.5q62 0 96.5 21.5t34.5 65.5q0 33 -19 50.5t-63 21.5l-81 7q-72 6 -109.5 38t-37.5 94q0 34 13.5 60.5t37.5 45t57 28.5t73 10q54 0 98.5 -13t78.5 -40l-47 -47 q-26 20 -59.5 29.5t-71.5 9.5q-54 0 -82 -21.5t-28 -59.5q0 -33 21 -50t67 -22l77 -7q32 -3 59 -11t46 -23.5t29.5 -39.5t10.5 -59z"/>
<glyph glyph-name="t" horiz-adv-x="332" unicode="t" d="M228 0q-32 0 -55.5 10.5t-39 28.5t-23.5 42t-8 51v305h-62v55h62v151h72v-151h105v-55h-105v-303q0 -34 16 -53t51 -19h38v-62h-51z"/>
<glyph glyph-name="u" horiz-adv-x="562" unicode="u" d="M401 0v55q-26 -30 -61.5 -45.5t-77.5 -15.5q-81 0 -127 46q-26 26 -38 60.5t-12 77.5v314h72v-303q0 -66 32 -98.5t88 -32.5t89.5 33t33.5 98v303h72v-492h-71z"/>
<glyph glyph-name="v" horiz-adv-x="447" unicode="v" d="M255 0h-64l-180 492h78l134 -395l135 395h78z"/>
<glyph glyph-name="w" horiz-adv-x="724" unicode="w" d="M558 0h-67l-129 382l-128 -382h-67l-156 492h78l113 -395l129 395h62l130 -395l112 395h78z"/>
<glyph glyph-name="x" horiz-adv-x="478" unicode="x" d="M358 0l-118 191l-120 -191h-87l167 251l-160 241h87l113 -182l111 182h87l-160 -241l167 -251h-87z"/>
<glyph glyph-name="y" horiz-adv-x="447" unicode="y" d="M212 -119q-14 -39 -35 -58q-20 -19 -45 -26.5t-51 -7.5h-31v64h22q37 0 53 13.5t28 47.5l35 96l-177 482h78l135 -395l134 395h78z"/>
<glyph glyph-name="z" horiz-adv-x="459" unicode="z" d="M50 0v62l274 366h-259v64h342v-61l-275 -367h275v-64h-357z"/>
<glyph glyph-name="braceleft" horiz-adv-x="354" unicode="{" d="M268 -74q-38 0 -61.5 7t-39.5 23q-17 17 -23.5 38.5t-6.5 60.5v191q0 42 -18 60q-8 8 -19.5 13t-25.5 5h-26v64h26q14 0 25.5 5t19.5 13q18 18 18 60v191q0 39 6.5 60.5t23.5 38.5q16 16 39.5 23t61.5 7h37v-64h-23q-26 0 -38.5 -2.5t-20.5 -10.5t-11 -23t-3 -42v-188 q0 -43 -17 -64.5t-46 -35.5q29 -14 46 -35.5t17 -64.5v-188q0 -27 3 -42t11 -23t20.5 -10.5t38.5 -2.5h23v-64h-37z"/>
<glyph glyph-name="bar" horiz-adv-x="326" unicode="|" d="M127 -74v860h72v-860h-72z"/>
<glyph glyph-name="braceright" horiz-adv-x="354" unicode="}" d="M280 324q-14 0 -25.5 -5t-19.5 -13q-18 -18 -18 -60v-191q0 -39 -6.5 -60.5t-23.5 -38.5q-16 -16 -39.5 -23t-61.5 -7h-38v64h24q26 0 38 2.5t20 10.5t11.5 23t3.5 42v188q0 43 17 64.5t46 35.5q-29 14 -46 35.5t-17 64.5v188q0 27 -3.5 42t-11.5 23t-20 10.5t-38 2.5 h-24v64h38q38 0 61.5 -7t39.5 -23q17 -17 23.5 -38.5t6.5 -60.5v-191q0 -42 18 -60q8 -8 19.5 -13t25.5 -5h25v-64h-25z"/>
<glyph glyph-name="asciitilde" horiz-adv-x="539" unicode="~" d="M490 278q-21 -21 -37.5 -34.5t-31 -21t-29 -10t-31.5 -2.5q-26 0 -51.5 9t-54.5 22q-21 10 -39.5 17t-38.5 7q-11 0 -19.5 -1.5t-18 -6.5t-20.5 -13.5t-26 -23.5l-44 45q21 21 37.5 34t31 20.5t29 10.5t31.5 3q26 0 51 -9t54 -22q21 -10 39.5 -17t38.5 -7q10 0 19 1.5 t18.5 6.5t20.5 13.5t26 23.5z"/>
<glyph glyph-name="uni00A0" horiz-adv-x="249" unicode=" "/>
<glyph glyph-name="exclamdown" horiz-adv-x="316" unicode="¡" d="M99 408v84h86v-84h-86zM101 -220l10 512h62l11 -512h-83z"/>
<glyph glyph-name="cent" horiz-adv-x="498" unicode="¢" d="M248 550q-49 -9 -80 -52q-17 -24 -25 -54.5t-8 -77.5t8 -77.5t25 -54.5q31 -43 80 -52v368zM448 189q-35 -38 -67.5 -54.5t-77.5 -19.5v-115h-59v117q-83 12 -132 76t-49 173t49 173t132 76v97h59v-95q45 -3 77.5 -19.5t67.5 -54.5l-49 -46q-25 28 -47.5 40.5t-52.5 14.5 v-372q30 2 52.5 14.5t47.5 40.5z"/>
<glyph glyph-name="sterling" horiz-adv-x="548" unicode="£" d="M110 0v330h-63v54h63v112q0 51 16.5 92.5t46 70t70.5 44t90 15.5q51 0 90.5 -15.5t72.5 -48.5l-52 -51q-10 10 -20 18.5t-23 15t-29.5 10t-38.5 3.5q-70 0 -108 -42.5t-38 -121.5v-102h146v-54h-146v-262h309v-68h-386z"/>
<glyph glyph-name="currency" horiz-adv-x="660" unicode="¤" d="M485 271q0 32 -12 60.5t-33 49.5t-49.5 33t-60.5 12t-60.5 -12t-49.5 -33t-33.5 -49.5t-12.5 -60.5t12.5 -60.5t33.5 -49.5t49.5 -33.5t60.5 -12.5t60.5 12.5t49.5 33.5t33 49.5t12 60.5zM536 19l-75 74q-27 -20 -60 -32t-71 -12t-71.5 12t-60.5 32l-74 -74l-46 46l74 74 q-20 27 -32 60.5t-12 71.5t12 71.5t32 60.5l-74 73l46 46l74 -73q27 20 60.5 31.5t71.5 11.5t71 -11.5t60 -31.5l75 73l46 -46l-74 -73q20 -27 32 -60.5t12 -71.5t-12 -71.5t-32 -60.5l74 -74z"/>
<glyph glyph-name="yen" horiz-adv-x="514" unicode="¥" d="M349 401h100v-54h-127l-26 -53v-52h153v-55h-153v-187h-77v187h-154v55h154v52l-26 53h-128v54h100l-157 311h82l168 -341l167 341h81z"/>
<glyph glyph-name="brokenbar" horiz-adv-x="335" unicode="¦" d="M127 -74v350h72v-350h-72zM127 436v350h72v-350h-72z"/>
<glyph glyph-name="section" horiz-adv-x="557" unicode="§" d="M397 253q0 29 -6.5 51t-25.5 41q-36 36 -86 36q-53 0 -86 -36q-17 -19 -25 -40t-8 -52q0 -32 9.5 -54t23.5 -38q33 -36 86 -36t86 36q15 17 23.5 38.5t8.5 53.5zM470 254q0 -31 -9 -56.5t-23.5 -46.5t-33 -36t-38.5 -25q43 -16 70 -52.5t27 -91.5q0 -39 -14.5 -71 t-39 -54.5t-58 -34.5t-72.5 -12q-37 0 -70.5 10t-59 30.5t-41.5 50.5t-18 70h73q5 -47 35 -71t81 -24t81 27t30 78q0 35 -23 62.5t-65 39.5l-78 22q-66 19 -101.5 66.5t-35.5 116.5q0 31 9 56.5t23.5 46.5t33.5 36t39 25q-43 20 -68 51.5t-25 86.5q0 36 13.5 66.5t37.5 52 t57 33.5t72 12t71.5 -11t56.5 -31t38 -49.5t16 -65.5h-72q-4 50 -33 71.5t-77 21.5q-51 0 -79.5 -25t-28.5 -74q0 -40 23 -62.5t61 -33.5l78 -22q66 -19 101.5 -67t35.5 -116z"/>
<glyph glyph-name="dieresis" horiz-adv-x="500" unicode="¨" d="M108 602v89h72v-89h-72zM320 602v89h72v-89h-72z"/>
<glyph glyph-name="copyright" horiz-adv-x="881" unicode="©" d="M576 205q-29 -26 -59 -39t-72 -13q-44 0 -77 15.5t-55.5 42.5t-34 64t-11.5 81t11.5 81.5t34 64.5t55.5 42.5t77 15.5q42 0 71 -13t60 -40l-36 -36q-25 22 -46 30.5t-49 8.5q-34 0 -57.5 -12.5t-37.5 -33.5t-20.5 -49t-6.5 -59q0 -32 6.5 -59.5t20.5 -48.5t37.5 -33 t57.5 -12q28 0 49 8t46 30zM744 356q0 63 -24 119t-65 98t-96.5 66.5t-118.5 24.5t-118 -24.5t-96.5 -66.5t-65 -98t-23.5 -119t23.5 -119t65 -98t96.5 -66.5t118 -24.5t118.5 24.5t96.5 66.5t65 98t24 119zM802 356q0 -75 -28.5 -141t-77.5 -115t-115 -77.5t-141 -28.5 t-141 28.5t-115 77.5t-77.5 115t-28.5 141t28.5 141t77.5 115t115 77.5t141 28.5t141 -28.5t115 -77.5t77.5 -115t28.5 -141z"/>
<glyph glyph-name="ordfeminine" horiz-adv-x="449" unicode="ª" d="M306 498h-107q-84 0 -84 -67q0 -33 20.5 -49t65.5 -16q25 0 46.5 4t39.5 21q19 18 19 67v40zM307 319v36q-23 -23 -48 -32t-63 -9q-41 0 -66 8.5t-44 27.5q-30 32 -30 79q0 52 34.5 83t100.5 31h115v36q0 42 -21.5 63t-75.5 21q-37 0 -58.5 -9.5t-39.5 -34.5l-41 37 q27 35 59.5 47.5t80.5 12.5q79 0 117 -34t38 -98v-265h-58z"/>
<glyph glyph-name="guillemotleft" horiz-adv-x="554" unicode="«" d="M266 268l210 210v-90l-121 -120l121 -121v-89zM40 268l210 210v-90l-120 -120l120 -121v-89z"/>
<glyph glyph-name="logicalnot" d="M404 103v137h-353v67h420v-204h-67z" unicode="¬"/>
<glyph glyph-name="uni00AD" horiz-adv-x="426" unicode="­" d="M76 236v67h274v-67h-274z"/>
<glyph glyph-name="registered" horiz-adv-x="881" unicode="®" d="M526 436q0 30 -21 50t-54 20h-74v-139h74q33 0 54 19.5t21 49.5zM528 158l-91 162h-60v-162h-55v397h135q26 0 48.5 -9t39.5 -25t27 -38t10 -47q0 -44 -24 -71t-61 -38l95 -169h-64zM745 356q0 64 -24 120t-65.5 98t-97 66.5t-118.5 24.5t-118.5 -24.5t-96.5 -66.5 t-65 -98t-24 -120t24 -120t65 -98t96.5 -66.5t118.5 -24.5t118.5 24.5t97 66.5t65.5 98t24 120zM802 356q0 -75 -28.5 -141t-77.5 -115t-115 -77.5t-141 -28.5t-141 28.5t-115 77.5t-77.5 115t-28.5 141t28.5 141t77.5 115t115 77.5t141 28.5t141 -28.5t115 -77.5t77.5 -115 t28.5 -141z"/>
<glyph glyph-name="macron" horiz-adv-x="500" unicode="¯" d="M99 614v56h301v-56h-301z"/>
<glyph glyph-name="degree" horiz-adv-x="463" unicode="°" d="M335 557q0 22 -8 41.5t-22 34t-33 22.5t-41 8t-41 -8t-32.5 -22.5t-21.5 -34t-8 -41.5q0 -23 8 -42t22 -33.5t33 -22.5t41 -8t41 8t32.5 22.5t21.5 33.5t8 42zM396 557q0 -34 -13 -64t-35 -52t-52 -35t-64 -13t-64 13t-52.5 35t-35.5 52t-13 64t13 64t35.5 52t52.5 35 t64 13t64 -13t52 -35t35 -52t13 -64z"/>
<glyph glyph-name="plusminus" d="M52 0v67h418v-67h-418zM295 289v-177h-67v177h-176v67h176v175h67v-175h175v-67h-175z" unicode="±"/>
<glyph glyph-name="twosuperior" horiz-adv-x="318" unicode="²" d="M41 285v52l165 202q12 15 17.5 28t5.5 30q0 30 -17 48.5t-48 18.5q-26 0 -45.5 -15t-19.5 -52h-58q0 54 34.5 86.5t88.5 32.5t88.5 -32t34.5 -87q0 -28 -9.5 -48t-29.5 -44l-138 -168h177v-52h-246z"/>
<glyph glyph-name="threesuperior" horiz-adv-x="318" unicode="³" d="M293 405q0 -30 -10 -53.5t-27.5 -39t-41 -23.5t-50.5 -8q-26 0 -49 7t-41 21.5t-29 37t-12 53.5h58q2 -36 23.5 -51.5t49.5 -15.5q30 0 51 19t21 54q0 33 -18.5 52.5t-56.5 19.5h-9v51h9q34 0 51 18.5t17 48.5q0 33 -20 50.5t-46 17.5q-29 0 -47 -17t-20 -46h-57 q3 54 38 84.5t86 30.5q55 0 89 -32.5t34 -86.5q0 -35 -14 -57t-40 -34q29 -12 45 -36.5t16 -64.5z"/>
<glyph glyph-name="acute" horiz-adv-x="500" unicode="´" d="M270 594h-69l91 153h83z"/>
<glyph glyph-name="mu" horiz-adv-x="561" unicode="µ" d="M399 0v55q-53 -61 -138 -61q-66 0 -106 37v-251h-72v712h72v-303q0 -66 32.5 -98.5t88.5 -32.5t89.5 33t33.5 98v303h72v-492h-72z"/>
<glyph glyph-name="paragraph" horiz-adv-x="603" unicode="¶" d="M428 -220v864h-117v-864h-72v546q-45 0 -81.5 16t-62 43t-39.5 61.5t-14 71.5q0 40 14.5 75.5t42.5 61.5t68.5 41.5t91.5 15.5h241v-932h-72z"/>
<glyph glyph-name="periodcentered" horiz-adv-x="270" unicode="·" d="M88 223v94h94v-94h-94z"/>
<glyph glyph-name="cedilla" horiz-adv-x="500" unicode="¸" d="M254 -216h-79l71 149h67z"/>
<glyph glyph-name="onesuperior" horiz-adv-x="318" unicode="¹" d="M150 285v363l-83 -73v66l83 71h57v-427h-57z"/>
<glyph glyph-name="ordmasculine" horiz-adv-x="455" unicode="º" d="M328 515q0 32 -5 65t-26 54q-28 28 -70 28t-70 -28q-21 -21 -25.5 -54t-4.5 -65t4.5 -64.5t25.5 -53.5q14 -14 32 -21.5t38 -7.5t38 7.5t32 21.5q21 21 26 53.5t5 64.5zM387 515q0 -46 -9 -85.5t-39 -70.5q-20 -20 -48 -32t-64 -12t-64 12t-48 32q-30 31 -39 70.5 t-9 85.5q0 45 9 85t39 71q20 20 48 32.5t64 12.5t64 -12.5t48 -32.5q30 -31 39 -71t9 -85z"/>
<glyph glyph-name="guillemotright" horiz-adv-x="554" unicode="»" d="M78 58v89l121 121l-121 120v90l210 -210zM304 58v89l120 121l-120 120v90l210 -210z"/>
<glyph glyph-name="onequarter" horiz-adv-x="821" unicode="¼" d="M754 65v-65h-57v65h-172v52l151 310h62l-151 -310h110v105h57v-105h47v-52h-47zM274 0h-60l333 712h60zM150 285v363l-83 -73v66l83 71h57v-427h-57z"/>
<glyph glyph-name="onehalf" horiz-adv-x="821" unicode="½" d="M544 0v52l165 202q12 15 17.5 28t5.5 30q0 30 -17 48.5t-48 18.5q-26 0 -45.5 -15t-19.5 -52h-58q0 54 34.5 86.5t88.5 32.5t88.5 -32t34.5 -87q0 -28 -9.5 -48t-29.5 -44l-138 -168h177v-52h-246zM274 0h-60l333 712h60zM150 285v363l-83 -73v66l83 71h57v-427h-57z"/>
<glyph glyph-name="threequarters" horiz-adv-x="821" unicode="¾" d="M754 65v-65h-57v65h-172v52l151 310h62l-151 -310h110v105h57v-105h47v-52h-47zM274 0h-60l333 712h60zM293 405q0 -30 -10 -53.5t-27.5 -39t-41 -23.5t-50.5 -8q-26 0 -49 7t-41 21.5t-29 37t-12 53.5h58q2 -36 23.5 -51.5t49.5 -15.5q30 0 51 19t21 54q0 33 -18.5 52.5 t-56.5 19.5h-9v51h9q34 0 51 18.5t17 48.5q0 33 -20 50.5t-46 17.5q-29 0 -47 -17t-20 -46h-57q3 54 38 84.5t86 30.5q55 0 89 -32.5t34 -86.5q0 -35 -14 -57t-40 -34q29 -12 45 -36.5t16 -64.5z"/>
<glyph glyph-name="questiondown" horiz-adv-x="497" unicode="¿" d="M185 408v84h85v-84h-85zM421 -43q0 -38 -14 -71.5t-39 -58.5t-59.5 -39t-74.5 -14q-39 0 -73.5 13.5t-60 38t-40 58t-14.5 73.5q0 35 13 63t33 57l82 118q9 14 13.5 30t4.5 28v40h72v-41q0 -29 -8 -50t-24 -44l-81 -116q-14 -21 -23.5 -40t-9.5 -45q0 -51 32.5 -84.5 t83.5 -33.5q27 0 48 9.5t36 26t23 37.5t8 45h72z"/>
<glyph glyph-name="Agrave" horiz-adv-x="611" unicode="À" d="M307 603l-134 -376h266zM518 0l-57 161h-311l-57 -161h-81l262 712h64l261 -712h-81zM285 780l-105 154h83l91 -154h-69z"/>
<glyph glyph-name="Aacute" horiz-adv-x="611" unicode="Á" d="M307 603l-134 -376h266zM518 0l-57 161h-311l-57 -161h-81l262 712h64l261 -712h-81zM321 780h-69l91 154h83z"/>
<glyph glyph-name="Acircumflex" horiz-adv-x="611" unicode="Â" d="M307 603l-134 -376h266zM518 0l-57 161h-311l-57 -161h-81l262 712h64l261 -712h-81zM393 780l-90 105l-91 -105h-69l126 153h68l125 -153h-69z"/>
<glyph glyph-name="Atilde" horiz-adv-x="611" unicode="Ã" d="M307 603l-134 -376h266zM518 0l-57 161h-311l-57 -161h-81l262 712h64l261 -712h-81zM460 844q-17 -17 -31 -27t-25 -15t-20.5 -6.5t-18.5 -1.5q-22 0 -37.5 6t-33.5 17q-14 8 -27.5 14.5t-28.5 6.5q-13 0 -25 -5t-34 -27l-37 36q17 17 30.5 27t25 15.5t21 7t18.5 1.5 q22 0 37 -6t34 -18q16 -10 28.5 -15t27.5 -5q6 0 11.5 1t12.5 4t15.5 9.5t19.5 17.5z"/>
<glyph glyph-name="Adieresis" horiz-adv-x="611" unicode="Ä" d="M307 603l-134 -376h266zM518 0l-57 161h-311l-57 -161h-81l262 712h64l261 -712h-81zM165 789v89h72v-89h-72zM377 789v89h72v-89h-72z"/>
<glyph glyph-name="Aring" horiz-adv-x="611" unicode="Å" d="M307 603l-134 -376h266zM518 0l-57 161h-311l-57 -161h-81l262 712h64l261 -712h-81zM371 867q0 29 -20 48.5t-49 19.5t-49 -19.5t-20 -48.5t20 -49t49 -20t49 20t20 49zM420 867q0 -24 -9.5 -46t-25.5 -38t-37.5 -25.5t-45.5 -9.5t-45.5 9.5t-37.5 25.5t-25.5 38 t-9.5 46t9.5 45.5t25.5 37.5t37.5 25.5t45.5 9.5t45.5 -9t37.5 -25t25.5 -37.5t9.5 -46.5z"/>
<glyph glyph-name="AE" horiz-adv-x="922" unicode="Æ" d="M426 644l-214 -409h214v409zM426 0v169h-247l-88 -169h-83l376 712h483v-68h-366v-253h312v-68h-312v-255h366v-68h-441z"/>
<glyph glyph-name="Ccedilla" horiz-adv-x="637" unicode="Ç" d="M572 206q-19 -100 -84.5 -156t-162.5 -56q-56 0 -100.5 18.5t-77.5 51.5q-25 25 -39.5 51t-21.5 59t-8.5 77t-1.5 105t1.5 105t8.5 77t21.5 59t39.5 51q33 33 77.5 51.5t100.5 18.5q97 0 162.5 -56t84.5 -156h-78q-14 66 -58 105t-111 39q-73 0 -123 -50q-17 -17 -27 -37 t-15 -47.5t-6.5 -66t-1.5 -93.5t1.5 -93.5t6.5 -66t15 -47.5t27 -37q50 -50 123 -50q67 0 112 39t59 105h76zM311 -216h-79l71 149h67z"/>
<glyph glyph-name="Egrave" horiz-adv-x="600" unicode="È" d="M103 0v712h442v-68h-366v-251h312v-68h-312v-257h366v-68h-442zM296 780l-105 154h83l91 -154h-69z"/>
<glyph glyph-name="Eacute" horiz-adv-x="600" unicode="É" d="M103 0v712h442v-68h-366v-251h312v-68h-312v-257h366v-68h-442zM332 780h-69l91 154h83z"/>
<glyph glyph-name="Ecircumflex" horiz-adv-x="600" unicode="Ê" d="M103 0v712h442v-68h-366v-251h312v-68h-312v-257h366v-68h-442zM404 780l-90 105l-91 -105h-69l126 153h68l125 -153h-69z"/>
<glyph glyph-name="Edieresis" horiz-adv-x="600" unicode="Ë" d="M103 0v712h442v-68h-366v-251h312v-68h-312v-257h366v-68h-442zM172 789v89h72v-89h-72zM384 789v89h72v-89h-72z"/>
<glyph glyph-name="Igrave" horiz-adv-x="282" unicode="Ì" d="M103 0v712h76v-712h-76zM113 780l-105 154h83l91 -154h-69z"/>
<glyph glyph-name="Iacute" horiz-adv-x="282" unicode="Í" d="M103 0v712h76v-712h-76zM171 780h-69l91 154h83z"/>
<glyph glyph-name="Icircumflex" horiz-adv-x="282" unicode="Î" d="M103 0v712h76v-712h-76zM231 780l-90 105l-91 -105h-69l126 153h68l125 -153h-69z"/>
<glyph glyph-name="Idieresis" horiz-adv-x="282" unicode="Ï" d="M103 0v712h76v-712h-76zM0 789v89h72v-89h-72zM212 789v89h72v-89h-72z"/>
<glyph glyph-name="Eth" horiz-adv-x="687" unicode="Ð" d="M535 356q0 37 -1 71.5t-5.5 65t-14 56t-26.5 43.5q-27 30 -63 41t-77 11h-155v-255h162v-59h-162v-262h155q41 0 77 11t63 41q17 18 26.5 43.5t14 56t5.5 65t1 71.5zM611 356q0 -41 -1.5 -80.5t-7.5 -75.5t-18.5 -68t-35.5 -57q-36 -39 -81.5 -57t-105.5 -18h-244v330 h-78v59h78v323h244q60 0 105.5 -18t81.5 -57q24 -26 36.5 -57.5t18.5 -67.5t7 -75.5t1 -80.5z"/>
<glyph glyph-name="Ntilde" horiz-adv-x="732" unicode="Ñ" d="M557 0l-378 571v-571h-76v712h72l378 -569v569h76v-712h-72zM523 844q-17 -17 -31 -27t-25 -15t-20.5 -6.5t-18.5 -1.5q-22 0 -37.5 6t-33.5 17q-14 8 -27.5 14.5t-28.5 6.5q-13 0 -25 -5t-34 -27l-37 36q17 17 30.5 27t25 15.5t21 7t18.5 1.5q22 0 37 -6t34 -18 q16 -10 28.5 -15t27.5 -5q6 0 11.5 1t12.5 4t15.5 9.5t19.5 17.5z"/>
<glyph glyph-name="Ograve" horiz-adv-x="650" unicode="Ò" d="M498 356q0 55 -1.5 93.5t-6.5 66t-15 47.5t-27 37q-50 50 -123 50t-123 -50q-17 -17 -27 -37t-15 -47.5t-6.5 -66t-1.5 -93.5t1.5 -93.5t6.5 -66t15 -47.5t27 -37q50 -50 123 -50t123 50q17 17 27 37t15 47.5t6.5 66t1.5 93.5zM574 356q0 -61 -2 -105t-9 -77t-21.5 -59 t-39.5 -51q-33 -33 -77 -51.5t-100 -18.5t-100.5 18.5t-77.5 51.5q-25 25 -39.5 51t-21.5 59t-8.5 77t-1.5 105t1.5 105t8.5 77t21.5 59t39.5 51q33 33 77.5 51.5t100.5 18.5t100 -18.5t77 -51.5q25 -25 39.5 -51t21.5 -59t9 -77t2 -105zM307 780l-105 154h83l91 -154h-69z "/>
<glyph glyph-name="Oacute" horiz-adv-x="650" unicode="Ó" d="M498 356q0 55 -1.5 93.5t-6.5 66t-15 47.5t-27 37q-50 50 -123 50t-123 -50q-17 -17 -27 -37t-15 -47.5t-6.5 -66t-1.5 -93.5t1.5 -93.5t6.5 -66t15 -47.5t27 -37q50 -50 123 -50t123 50q17 17 27 37t15 47.5t6.5 66t1.5 93.5zM574 356q0 -61 -2 -105t-9 -77t-21.5 -59 t-39.5 -51q-33 -33 -77 -51.5t-100 -18.5t-100.5 18.5t-77.5 51.5q-25 25 -39.5 51t-21.5 59t-8.5 77t-1.5 105t1.5 105t8.5 77t21.5 59t39.5 51q33 33 77.5 51.5t100.5 18.5t100 -18.5t77 -51.5q25 -25 39.5 -51t21.5 -59t9 -77t2 -105zM343 780h-69l91 154h83z"/>
<glyph glyph-name="Ocircumflex" horiz-adv-x="650" unicode="Ô" d="M498 356q0 55 -1.5 93.5t-6.5 66t-15 47.5t-27 37q-50 50 -123 50t-123 -50q-17 -17 -27 -37t-15 -47.5t-6.5 -66t-1.5 -93.5t1.5 -93.5t6.5 -66t15 -47.5t27 -37q50 -50 123 -50t123 50q17 17 27 37t15 47.5t6.5 66t1.5 93.5zM574 356q0 -61 -2 -105t-9 -77t-21.5 -59 t-39.5 -51q-33 -33 -77 -51.5t-100 -18.5t-100.5 18.5t-77.5 51.5q-25 25 -39.5 51t-21.5 59t-8.5 77t-1.5 105t1.5 105t8.5 77t21.5 59t39.5 51q33 33 77.5 51.5t100.5 18.5t100 -18.5t77 -51.5q25 -25 39.5 -51t21.5 -59t9 -77t2 -105zM415 780l-90 105l-91 -105h-69 l126 153h68l125 -153h-69z"/>
<glyph glyph-name="Otilde" horiz-adv-x="650" unicode="Õ" d="M498 356q0 55 -1.5 93.5t-6.5 66t-15 47.5t-27 37q-50 50 -123 50t-123 -50q-17 -17 -27 -37t-15 -47.5t-6.5 -66t-1.5 -93.5t1.5 -93.5t6.5 -66t15 -47.5t27 -37q50 -50 123 -50t123 50q17 17 27 37t15 47.5t6.5 66t1.5 93.5zM574 356q0 -61 -2 -105t-9 -77t-21.5 -59 t-39.5 -51q-33 -33 -77 -51.5t-100 -18.5t-100.5 18.5t-77.5 51.5q-25 25 -39.5 51t-21.5 59t-8.5 77t-1.5 105t1.5 105t8.5 77t21.5 59t39.5 51q33 33 77.5 51.5t100.5 18.5t100 -18.5t77 -51.5q25 -25 39.5 -51t21.5 -59t9 -77t2 -105zM482 844q-17 -17 -31 -27t-25 -15 t-20.5 -6.5t-18.5 -1.5q-22 0 -37.5 6t-33.5 17q-14 8 -27.5 14.5t-28.5 6.5q-13 0 -25 -5t-34 -27l-37 36q17 17 30.5 27t25 15.5t21 7t18.5 1.5q22 0 37 -6t34 -18q16 -10 28.5 -15t27.5 -5q6 0 11.5 1t12.5 4t15.5 9.5t19.5 17.5z"/>
<glyph glyph-name="Odieresis" horiz-adv-x="650" unicode="Ö" d="M498 356q0 55 -1.5 93.5t-6.5 66t-15 47.5t-27 37q-50 50 -123 50t-123 -50q-17 -17 -27 -37t-15 -47.5t-6.5 -66t-1.5 -93.5t1.5 -93.5t6.5 -66t15 -47.5t27 -37q50 -50 123 -50t123 50q17 17 27 37t15 47.5t6.5 66t1.5 93.5zM574 356q0 -61 -2 -105t-9 -77t-21.5 -59 t-39.5 -51q-33 -33 -77 -51.5t-100 -18.5t-100.5 18.5t-77.5 51.5q-25 25 -39.5 51t-21.5 59t-8.5 77t-1.5 105t1.5 105t8.5 77t21.5 59t39.5 51q33 33 77.5 51.5t100.5 18.5t100 -18.5t77 -51.5q25 -25 39.5 -51t21.5 -59t9 -77t2 -105zM183 789v89h72v-89h-72zM395 789v89 h72v-89h-72z"/>
<glyph glyph-name="multiply" d="M412 74l-151 151l-151 -151l-45 45l151 151l-151 151l45 45l151 -152l151 152l45 -45l-152 -151l152 -151z" unicode="×"/>
<glyph glyph-name="Oslash" horiz-adv-x="650" unicode="Ø" d="M498 356q0 48 -1 83t-5 61.5t-10.5 46t-18.5 35.5l-234 -492q42 -28 96 -28q73 0 123 50q17 17 27 37t15 47.5t6.5 66t1.5 93.5zM152 356q0 -48 1 -83t5 -61.5t10.5 -46t18.5 -35.5l234 492q-40 28 -96 28q-36 0 -67.5 -12.5t-55.5 -37.5q-17 -17 -27 -37t-15 -47.5 t-6.5 -66t-1.5 -93.5zM574 356q0 -61 -1.5 -104.5t-8.5 -76.5t-21.5 -59t-40.5 -52q-33 -33 -77 -51.5t-100 -18.5q-37 0 -68 8t-58 23l-33 -69h-65l50 104q-27 26 -42 52t-22.5 59.5t-9 78t-1.5 106.5q0 61 1.5 105t8.5 77t21.5 59t39.5 51q33 33 77.5 51.5t100.5 18.5 q74 0 125 -31l34 69h65l-50 -105q27 -26 42 -52.5t22.5 -60t9 -77.5t1.5 -105z"/>
<glyph glyph-name="Ugrave" horiz-adv-x="683" unicode="Ù" d="M590 235q0 -53 -18.5 -97.5t-52 -76.5t-79 -49.5t-99.5 -17.5t-99.5 17.5t-78.5 49.5t-51.5 76.5t-18.5 97.5v477h76v-471q0 -41 12 -74t34.5 -56t54.5 -36t71 -13t71 13t54.5 36t35 56t12.5 74v471h76v-477zM323 780l-105 154h83l91 -154h-69z"/>
<glyph glyph-name="Uacute" horiz-adv-x="683" unicode="Ú" d="M590 235q0 -53 -18.5 -97.5t-52 -76.5t-79 -49.5t-99.5 -17.5t-99.5 17.5t-78.5 49.5t-51.5 76.5t-18.5 97.5v477h76v-471q0 -41 12 -74t34.5 -56t54.5 -36t71 -13t71 13t54.5 36t35 56t12.5 74v471h76v-477zM359 780h-69l91 154h83z"/>
<glyph glyph-name="Ucircumflex" horiz-adv-x="683" unicode="Û" d="M590 235q0 -53 -18.5 -97.5t-52 -76.5t-79 -49.5t-99.5 -17.5t-99.5 17.5t-78.5 49.5t-51.5 76.5t-18.5 97.5v477h76v-471q0 -41 12 -74t34.5 -56t54.5 -36t71 -13t71 13t54.5 36t35 56t12.5 74v471h76v-477zM431 780l-90 105l-91 -105h-69l126 153h68l125 -153h-69z"/>
<glyph glyph-name="Udieresis" horiz-adv-x="683" unicode="Ü" d="M590 235q0 -53 -18.5 -97.5t-52 -76.5t-79 -49.5t-99.5 -17.5t-99.5 17.5t-78.5 49.5t-51.5 76.5t-18.5 97.5v477h76v-471q0 -41 12 -74t34.5 -56t54.5 -36t71 -13t71 13t54.5 36t35 56t12.5 74v471h76v-477zM199 789v89h72v-89h-72zM411 789v89h72v-89h-72z"/>
<glyph glyph-name="Yacute" horiz-adv-x="514" unicode="Ý" d="M296 294v-294h-76v294l-212 418h82l168 -341l166 341h82zM276 780h-69l91 154h83z"/>
<glyph glyph-name="Thorn" horiz-adv-x="642" unicode="Þ" d="M512 359q0 71 -42 106t-109 35h-182v-282h182q67 0 109 35t42 106zM588 359q0 -48 -16 -86.5t-45 -66t-69.5 -42t-89.5 -14.5h-189v-150h-76v712h76v-143h189q49 0 89.5 -15t69.5 -42t45 -66t16 -87z"/>
<glyph glyph-name="germandbls" horiz-adv-x="556" unicode="ß" d="M484 141q0 -68 -39 -105q-21 -19 -44.5 -27.5t-58.5 -8.5h-54v62h40q21 0 33.5 5t25.5 15q25 21 25 67v169q0 22 -4.5 36.5t-16.5 25.5q-21 21 -59 21h-44v60h36q40 0 64 24.5t24 66.5q0 22 -7.5 41.5t-23.5 33.5q-31 29 -94 29q-34 0 -57.5 -10t-38.5 -27.5t-21.5 -42.5 t-6.5 -55v-521h-73v524q0 95 54 145t147 50q40 0 75 -10t61.5 -30t41.5 -51.5t15 -74.5q0 -42 -17 -71t-46 -48q36 -18 49.5 -45t13.5 -75v-173z"/>
<glyph glyph-name="agrave" horiz-adv-x="526" unicode="à" d="M369 227h-137q-111 0 -111 -87q0 -43 27 -63.5t87 -20.5q31 0 58 5.5t51 27.5q25 24 25 85v53zM369 0v47q-29 -29 -61 -41t-81 -12q-51 0 -82 10t-57 35q-19 18 -28 44.5t-9 55.5q0 66 44 104t127 38h147v47q0 54 -28.5 81t-97.5 27q-47 0 -74 -13t-50 -44l-49 45 q32 43 72.5 58.5t101.5 15.5q100 0 148.5 -42t48.5 -122v-334h-72zM234 594l-105 153h83l91 -153h-69z"/>
<glyph glyph-name="aacute" horiz-adv-x="526" unicode="á" d="M369 227h-137q-111 0 -111 -87q0 -43 27 -63.5t87 -20.5q31 0 58 5.5t51 27.5q25 24 25 85v53zM369 0v47q-29 -29 -61 -41t-81 -12q-51 0 -82 10t-57 35q-19 18 -28 44.5t-9 55.5q0 66 44 104t127 38h147v47q0 54 -28.5 81t-97.5 27q-47 0 -74 -13t-50 -44l-49 45 q32 43 72.5 58.5t101.5 15.5q100 0 148.5 -42t48.5 -122v-334h-72zM272 594h-69l91 153h83z"/>
<glyph glyph-name="acircumflex" horiz-adv-x="526" unicode="â" d="M369 227h-137q-111 0 -111 -87q0 -43 27 -63.5t87 -20.5q31 0 58 5.5t51 27.5q25 24 25 85v53zM369 0v47q-29 -29 -61 -41t-81 -12q-51 0 -82 10t-57 35q-19 18 -28 44.5t-9 55.5q0 66 44 104t127 38h147v47q0 54 -28.5 81t-97.5 27q-47 0 -74 -13t-50 -44l-49 45 q32 43 72.5 58.5t101.5 15.5q100 0 148.5 -42t48.5 -122v-334h-72zM344 594l-91 104l-90 -104h-69l125 153h68l126 -153h-69z"/>
<glyph glyph-name="atilde" horiz-adv-x="526" unicode="ã" d="M369 227h-137q-111 0 -111 -87q0 -43 27 -63.5t87 -20.5q31 0 58 5.5t51 27.5q25 24 25 85v53zM369 0v47q-29 -29 -61 -41t-81 -12q-51 0 -82 10t-57 35q-19 18 -28 44.5t-9 55.5q0 66 44 104t127 38h147v47q0 54 -28.5 81t-97.5 27q-47 0 -74 -13t-50 -44l-49 45 q32 43 72.5 58.5t101.5 15.5q100 0 148.5 -42t48.5 -122v-334h-72zM410 658q-17 -17 -30.5 -27.5t-25 -15.5t-21 -6.5t-18.5 -1.5q-21 0 -37 6.5t-34 17.5q-14 8 -27.5 14t-28.5 6q-13 0 -25 -5t-34 -27l-37 36q17 17 30.5 27t25 15.5t21 7t18.5 1.5q22 0 37 -6t34 -18 q16 -9 28.5 -14.5t27.5 -5.5q6 0 11.5 1t12.5 4t15.5 9.5t19.5 17.5z"/>
<glyph glyph-name="adieresis" horiz-adv-x="526" unicode="ä" d="M369 227h-137q-111 0 -111 -87q0 -43 27 -63.5t87 -20.5q31 0 58 5.5t51 27.5q25 24 25 85v53zM369 0v47q-29 -29 -61 -41t-81 -12q-51 0 -82 10t-57 35q-19 18 -28 44.5t-9 55.5q0 66 44 104t127 38h147v47q0 54 -28.5 81t-97.5 27q-47 0 -74 -13t-50 -44l-49 45 q32 43 72.5 58.5t101.5 15.5q100 0 148.5 -42t48.5 -122v-334h-72zM111 602v89h72v-89h-72zM323 602v89h72v-89h-72z"/>
<glyph glyph-name="aring" horiz-adv-x="526" unicode="å" d="M369 227h-137q-111 0 -111 -87q0 -43 27 -63.5t87 -20.5q31 0 58 5.5t51 27.5q25 24 25 85v53zM369 0v47q-29 -29 -61 -41t-81 -12q-51 0 -82 10t-57 35q-19 18 -28 44.5t-9 55.5q0 66 44 104t127 38h147v47q0 54 -28.5 81t-97.5 27q-47 0 -74 -13t-50 -44l-49 45 q32 43 72.5 58.5t101.5 15.5q100 0 148.5 -42t48.5 -122v-334h-72zM321 687q0 29 -20 48.5t-49 19.5t-49 -19.5t-20 -48.5t20 -49t49 -20t49 20t20 49zM370 687q0 -24 -9.5 -46t-25.5 -38t-37.5 -25.5t-45.5 -9.5t-45.5 9.5t-37.5 25.5t-25.5 38t-9.5 46t9.5 45.5t25.5 37.5 t37.5 25.5t45.5 9.5t45.5 -9t37.5 -25t25.5 -37.5t9.5 -46.5z"/>
<glyph glyph-name="ae" horiz-adv-x="835" unicode="æ" d="M701 281q-1 15 -2 26t-2.5 20t-4 17.5t-6.5 18.5q-14 35 -45 54.5t-70 19.5q-40 0 -70.5 -19.5t-44.5 -54.5q-4 -11 -6.5 -19t-4.5 -17t-3 -20t-2 -26h261zM232 227q-111 0 -111 -87q0 -43 27 -63.5t87 -20.5q31 0 58 5.5t51 27.5q25 24 25 85v53h-137zM440 227 q0 -81 37 -125.5t109 -44.5q43 0 71 13.5t57 42.5l50 -43q-19 -19 -38 -33t-40.5 -23.5t-47 -14.5t-56.5 -5q-59 0 -103 20.5t-72 64.5q-33 -48 -74.5 -66.5t-105.5 -18.5q-49 0 -81 9.5t-58 35.5q-19 18 -28 44.5t-9 55.5q0 66 44 104t127 38h147v47q0 54 -28.5 81 t-97.5 27q-47 0 -74 -13t-50 -44l-49 45q32 43 72.5 58.5t101.5 15.5q132 0 173 -77q51 77 154 77q96 0 149 -63.5t53 -175.5v-32h-333z"/>
<glyph glyph-name="ccedilla" horiz-adv-x="490" unicode="ç" d="M443 67q-38 -41 -74.5 -57t-87.5 -16q-47 0 -86.5 15.5t-69 47t-46 79t-16.5 110.5t16.5 110t46 78.5t69 47.5t86.5 16q51 0 87.5 -16t74.5 -57l-49 -46q-28 31 -53 43t-60 12q-36 0 -65 -14t-49 -42q-17 -24 -24.5 -54.5t-7.5 -77.5t7.5 -77.5t24.5 -54.5q20 -28 49 -42 t65 -14q35 0 60 12.5t53 43.5zM254 -216h-79l71 149h67z"/>
<glyph glyph-name="egrave" horiz-adv-x="530" unicode="è" d="M396 281q-1 15 -2 26t-2.5 20t-4.5 17.5t-7 18.5q-16 34 -45.5 54t-69.5 20t-69.5 -20t-45.5 -54q-5 -10 -7.5 -18.5t-4 -17.5t-2 -20t-1.5 -26h261zM135 227q0 -81 36.5 -125.5t108.5 -44.5q43 0 71.5 13.5t57.5 42.5l49 -43q-19 -19 -37.5 -33t-40 -23.5t-46.5 -14.5 t-56 -5q-49 0 -89 15t-68 46t-43 78.5t-15 112.5q0 121 54 186.5t148 65.5q97 0 149.5 -63.5t52.5 -175.5v-32h-332zM249 594l-105 153h83l91 -153h-69z"/>
<glyph glyph-name="eacute" horiz-adv-x="530" unicode="é" d="M396 281q-1 15 -2 26t-2.5 20t-4.5 17.5t-7 18.5q-16 34 -45.5 54t-69.5 20t-69.5 -20t-45.5 -54q-5 -10 -7.5 -18.5t-4 -17.5t-2 -20t-1.5 -26h261zM135 227q0 -81 36.5 -125.5t108.5 -44.5q43 0 71.5 13.5t57.5 42.5l49 -43q-19 -19 -37.5 -33t-40 -23.5t-46.5 -14.5 t-56 -5q-49 0 -89 15t-68 46t-43 78.5t-15 112.5q0 121 54 186.5t148 65.5q97 0 149.5 -63.5t52.5 -175.5v-32h-332zM287 594h-69l91 153h83z"/>
<glyph glyph-name="ecircumflex" horiz-adv-x="530" unicode="ê" d="M396 281q-1 15 -2 26t-2.5 20t-4.5 17.5t-7 18.5q-16 34 -45.5 54t-69.5 20t-69.5 -20t-45.5 -54q-5 -10 -7.5 -18.5t-4 -17.5t-2 -20t-1.5 -26h261zM135 227q0 -81 36.5 -125.5t108.5 -44.5q43 0 71.5 13.5t57.5 42.5l49 -43q-19 -19 -37.5 -33t-40 -23.5t-46.5 -14.5 t-56 -5q-49 0 -89 15t-68 46t-43 78.5t-15 112.5q0 121 54 186.5t148 65.5q97 0 149.5 -63.5t52.5 -175.5v-32h-332zM359 594l-91 104l-90 -104h-69l125 153h68l126 -153h-69z"/>
<glyph glyph-name="edieresis" horiz-adv-x="530" unicode="ë" d="M396 281q-1 15 -2 26t-2.5 20t-4.5 17.5t-7 18.5q-16 34 -45.5 54t-69.5 20t-69.5 -20t-45.5 -54q-5 -10 -7.5 -18.5t-4 -17.5t-2 -20t-1.5 -26h261zM135 227q0 -81 36.5 -125.5t108.5 -44.5q43 0 71.5 13.5t57.5 42.5l49 -43q-19 -19 -37.5 -33t-40 -23.5t-46.5 -14.5 t-56 -5q-49 0 -89 15t-68 46t-43 78.5t-15 112.5q0 121 54 186.5t148 65.5q97 0 149.5 -63.5t52.5 -175.5v-32h-332zM125 602v89h72v-89h-72zM337 602v89h72v-89h-72z"/>
<glyph glyph-name="igrave" horiz-adv-x="252" unicode="ì" d="M90 0v492h72v-492h-72zM96 594l-105 153h83l91 -153h-69z"/>
<glyph glyph-name="iacute" horiz-adv-x="252" unicode="í" d="M90 0v492h72v-492h-72zM159 594h-69l91 153h83z"/>
<glyph glyph-name="icircumflex" horiz-adv-x="252" unicode="î" d="M90 0v492h72v-492h-72zM221 594l-91 104l-90 -104h-69l125 153h68l126 -153h-69z"/>
<glyph glyph-name="idieresis" horiz-adv-x="252" unicode="ï" d="M90 0v492h72v-492h-72zM-14 602v89h72v-89h-72zM198 602v89h72v-89h-72z"/>
<glyph glyph-name="eth" horiz-adv-x="530" unicode="ð" d="M393 244q0 21 -1 42t-5 40.5t-12 37t-21 31.5q-36 36 -89 36q-52 0 -88 -36q-14 -14 -21.5 -31.5t-11.5 -37t-5 -40.5t-1 -42q0 -42 6 -82.5t33 -67.5q36 -36 88 -36q53 0 89 36q27 27 33 67.5t6 82.5zM465 244q0 -57 -11 -107t-49 -88q-25 -26 -60 -40.5t-80 -14.5 t-80 14.5t-60 40.5q-38 38 -48.5 88t-10.5 107t10.5 107t48.5 88q23 24 57 38t79 14q18 0 32.5 -2t28.5 -8l-58 99h-116v52h88l-47 82h75l47 -82h82v-52h-54l63 -111q20 -35 32.5 -62t19 -52.5t9 -51.5t2.5 -59z"/>
<glyph glyph-name="ntilde" horiz-adv-x="562" unicode="ñ" d="M405 0v303q0 66 -32.5 98.5t-88.5 32.5t-89 -33t-33 -98v-303h-72v492h72v-54q26 30 61 45t77 15q80 0 126 -46q51 -50 51 -137v-315h-72zM442 658q-17 -17 -30.5 -27.5t-25 -15.5t-21 -6.5t-18.5 -1.5q-21 0 -37 6.5t-34 17.5q-14 8 -27.5 14t-28.5 6q-13 0 -25 -5 t-34 -27l-37 36q17 17 30.5 27t25 15.5t21 7t18.5 1.5q22 0 37 -6t34 -18q16 -9 28.5 -14.5t27.5 -5.5q6 0 11.5 1t12.5 4t15.5 9.5t19.5 17.5z"/>
<glyph glyph-name="ograve" horiz-adv-x="530" unicode="ò" d="M394 246q0 42 -6 83.5t-33 68.5q-36 36 -90 36q-53 0 -89 -36q-27 -27 -33.5 -68.5t-6.5 -83.5q0 -21 1 -42t5 -41t12 -37.5t22 -31.5q36 -36 89 -36q54 0 90 36q27 28 33 69t6 83zM466 246q0 -57 -11.5 -107.5t-48.5 -88.5q-26 -26 -61 -41t-80 -15t-80 15t-61 41 q-19 19 -30.5 41.5t-18 47t-9 51.5t-2.5 56q0 57 11 107.5t49 88.5q26 26 61 41t80 15t80 -15t61 -41q38 -38 49 -88.5t11 -107.5zM236 594l-105 153h83l91 -153h-69z"/>
<glyph glyph-name="oacute" horiz-adv-x="530" unicode="ó" d="M394 246q0 42 -6 83.5t-33 68.5q-36 36 -90 36q-53 0 -89 -36q-27 -27 -33.5 -68.5t-6.5 -83.5q0 -21 1 -42t5 -41t12 -37.5t22 -31.5q36 -36 89 -36q54 0 90 36q27 28 33 69t6 83zM466 246q0 -57 -11.5 -107.5t-48.5 -88.5q-26 -26 -61 -41t-80 -15t-80 15t-61 41 q-19 19 -30.5 41.5t-18 47t-9 51.5t-2.5 56q0 57 11 107.5t49 88.5q26 26 61 41t80 15t80 -15t61 -41q38 -38 49 -88.5t11 -107.5zM284 594h-69l91 153h83z"/>
<glyph glyph-name="ocircumflex" horiz-adv-x="530" unicode="ô" d="M394 246q0 42 -6 83.5t-33 68.5q-36 36 -90 36q-53 0 -89 -36q-27 -27 -33.5 -68.5t-6.5 -83.5q0 -21 1 -42t5 -41t12 -37.5t22 -31.5q36 -36 89 -36q54 0 90 36q27 28 33 69t6 83zM466 246q0 -57 -11.5 -107.5t-48.5 -88.5q-26 -26 -61 -41t-80 -15t-80 15t-61 41 q-19 19 -30.5 41.5t-18 47t-9 51.5t-2.5 56q0 57 11 107.5t49 88.5q26 26 61 41t80 15t80 -15t61 -41q38 -38 49 -88.5t11 -107.5zM356 594l-91 104l-90 -104h-69l125 153h68l126 -153h-69z"/>
<glyph glyph-name="otilde" horiz-adv-x="530" unicode="õ" d="M394 246q0 42 -6 83.5t-33 68.5q-36 36 -90 36q-53 0 -89 -36q-27 -27 -33.5 -68.5t-6.5 -83.5q0 -21 1 -42t5 -41t12 -37.5t22 -31.5q36 -36 89 -36q54 0 90 36q27 28 33 69t6 83zM466 246q0 -57 -11.5 -107.5t-48.5 -88.5q-26 -26 -61 -41t-80 -15t-80 15t-61 41 q-19 19 -30.5 41.5t-18 47t-9 51.5t-2.5 56q0 57 11 107.5t49 88.5q26 26 61 41t80 15t80 -15t61 -41q38 -38 49 -88.5t11 -107.5zM422 658q-17 -17 -30.5 -27.5t-25 -15.5t-21 -6.5t-18.5 -1.5q-21 0 -37 6.5t-34 17.5q-14 8 -27.5 14t-28.5 6q-13 0 -25 -5t-34 -27l-37 36 q17 17 30.5 27t25 15.5t21 7t18.5 1.5q22 0 37 -6t34 -18q16 -9 28.5 -14.5t27.5 -5.5q6 0 11.5 1t12.5 4t15.5 9.5t19.5 17.5z"/>
<glyph glyph-name="odieresis" horiz-adv-x="530" unicode="ö" d="M394 246q0 42 -6 83.5t-33 68.5q-36 36 -90 36q-53 0 -89 -36q-27 -27 -33.5 -68.5t-6.5 -83.5q0 -21 1 -42t5 -41t12 -37.5t22 -31.5q36 -36 89 -36q54 0 90 36q27 28 33 69t6 83zM466 246q0 -57 -11.5 -107.5t-48.5 -88.5q-26 -26 -61 -41t-80 -15t-80 15t-61 41 q-19 19 -30.5 41.5t-18 47t-9 51.5t-2.5 56q0 57 11 107.5t49 88.5q26 26 61 41t80 15t80 -15t61 -41q38 -38 49 -88.5t11 -107.5zM123 602v89h72v-89h-72zM335 602v89h72v-89h-72z"/>
<glyph glyph-name="divide" d="M218 404v86h86v-86h-86zM218 49v86h86v-86h-86zM51 236v67h420v-67h-420z" unicode="÷"/>
<glyph glyph-name="oslash" horiz-adv-x="530" unicode="ø" d="M337 413q-30 21 -72 21q-53 0 -89 -36q-14 -14 -21.5 -31.5t-12 -37.5t-5.5 -41t-1 -42q0 -35 4 -70.5t21 -62.5zM394 246q0 35 -3.5 70.5t-20.5 62.5l-177 -299q31 -22 72 -22q54 0 90 36q13 13 21 31t12 38t5 41t1 42zM466 246q0 -57 -11.5 -107.5t-48.5 -88.5 q-26 -26 -61 -41t-80 -15q-31 0 -57 7t-48 20l-38 -65h-57l57 96q-36 38 -47 87.5t-11 106.5q0 28 2.5 55.5t9 52t18 47t30.5 41.5q26 26 61 41t80 15q31 0 57 -7t48 -20l39 65h56l-57 -96q36 -38 47 -87.5t11 -106.5z"/>
<glyph glyph-name="ugrave" horiz-adv-x="562" unicode="ù" d="M401 0v55q-26 -30 -61.5 -45.5t-77.5 -15.5q-81 0 -127 46q-26 26 -38 60.5t-12 77.5v314h72v-303q0 -66 32 -98.5t88 -32.5t89.5 33t33.5 98v303h72v-492h-71zM259 594l-105 153h83l91 -153h-69z"/>
<glyph glyph-name="uacute" horiz-adv-x="562" unicode="ú" d="M401 0v55q-26 -30 -61.5 -45.5t-77.5 -15.5q-81 0 -127 46q-26 26 -38 60.5t-12 77.5v314h72v-303q0 -66 32 -98.5t88 -32.5t89.5 33t33.5 98v303h72v-492h-71zM297 594h-69l91 153h83z"/>
<glyph glyph-name="ucircumflex" horiz-adv-x="562" unicode="û" d="M401 0v55q-26 -30 -61.5 -45.5t-77.5 -15.5q-81 0 -127 46q-26 26 -38 60.5t-12 77.5v314h72v-303q0 -66 32 -98.5t88 -32.5t89.5 33t33.5 98v303h72v-492h-71zM369 594l-91 104l-90 -104h-69l125 153h68l126 -153h-69z"/>
<glyph glyph-name="udieresis" horiz-adv-x="562" unicode="ü" d="M401 0v55q-26 -30 -61.5 -45.5t-77.5 -15.5q-81 0 -127 46q-26 26 -38 60.5t-12 77.5v314h72v-303q0 -66 32 -98.5t88 -32.5t89.5 33t33.5 98v303h72v-492h-71zM135 602v89h72v-89h-72zM347 602v89h72v-89h-72z"/>
<glyph glyph-name="yacute" horiz-adv-x="447" unicode="ý" d="M212 -119q-14 -39 -35 -58q-20 -19 -45 -26.5t-51 -7.5h-31v64h22q37 0 53 13.5t28 47.5l35 96l-177 482h78l135 -395l134 395h78zM244 594h-69l91 153h83z"/>
<glyph glyph-name="thorn" horiz-adv-x="546" unicode="þ" d="M409 246q0 36 -4 70t-17 60t-37.5 42t-64.5 16q-41 0 -65 -16t-37.5 -42t-17.5 -60t-4 -70t4 -70t17.5 -60t37.5 -42t65 -16q40 0 64.5 16t37.5 42t17 60t4 70zM481 246q0 -60 -11.5 -115.5t-48.5 -93.5q-20 -20 -51 -31.5t-69 -11.5q-41 0 -74.5 13t-64.5 51v-278h-72 v932h72v-277q31 38 64.5 50.5t74.5 12.5q38 0 69 -11.5t51 -31.5q18 -18 30 -42t18.5 -51t9 -56.5t2.5 -59.5z"/>
<glyph glyph-name="dotlessi" horiz-adv-x="252" unicode="ı" d="M90 0v492h72v-492h-72z"/>
<glyph glyph-name="OE" horiz-adv-x="989" unicode="Œ" d="M325 62q35 0 67.5 13.5t55.5 37.5q17 17 26.5 36.5t14.5 46.5t6.5 65.5t1.5 94.5t-1.5 94.5t-6.5 65.5t-14.5 46.5t-26.5 36.5q-23 24 -55.5 37.5t-67.5 13.5q-36 0 -67.5 -12.5t-55.5 -37.5q-17 -17 -27 -37t-15 -47.5t-6.5 -66t-1.5 -93.5t1.5 -93.5t6.5 -66t15 -47.5 t27 -37q24 -25 55.5 -37.5t67.5 -12.5zM324 -6q-56 0 -100 18.5t-77 51.5q-25 25 -39.5 51t-21.5 59t-8.5 77t-1.5 105t1.5 105t8.5 77t21.5 59t39.5 51q33 33 77 51.5t100 18.5q53 0 96.5 -19.5t76.5 -60.5v74h434v-67h-358v-254h305v-64h-305v-260h358v-67h-434v74 q-33 -41 -78.5 -60.5t-94.5 -19.5z"/>
<glyph glyph-name="oe" horiz-adv-x="861" unicode="œ" d="M394 246q0 42 -6 83.5t-33 68.5q-36 36 -90 36q-53 0 -89 -36q-27 -27 -33.5 -68.5t-6.5 -83.5q0 -21 1 -42t5 -41t12 -37.5t22 -31.5q36 -36 89 -36q54 0 90 36q27 28 33 69t6 83zM727 281q-1 15 -2 26t-2.5 20t-4.5 17.5t-7 18.5q-16 34 -45.5 54t-69.5 20t-69.5 -20 t-45.5 -54q-5 -10 -7.5 -18.5t-4 -17.5t-2 -20t-1.5 -26h261zM466 227q0 -81 36.5 -125.5t108.5 -44.5q43 0 71.5 13.5t57.5 42.5l49 -43q-19 -19 -37.5 -33t-40 -23.5t-46.5 -14.5t-56 -5q-124 0 -177 95q-23 -46 -67 -70.5t-100 -24.5q-45 0 -80 15t-61 41 q-19 19 -30.5 41.5t-18 47t-9 51.5t-2.5 56q0 57 11 107.5t49 88.5q26 26 61 41t80 15q57 0 100.5 -24.5t67.5 -70.5q24 47 65.5 71t97.5 24q97 0 149.5 -64t52.5 -174v-33h-332z"/>
<glyph glyph-name="Scaron" horiz-adv-x="588" unicode="Š" d="M532 196q0 -47 -17.5 -84.5t-49.5 -63.5t-77.5 -40t-101.5 -14q-40 0 -73.5 5.5t-63 16.5t-55.5 29t-51 43l51 51q44 -44 89 -60.5t105 -16.5q79 0 124 34.5t45 97.5q0 58 -35 89q-8 7 -16.5 12.5t-19 9.5t-24.5 7t-33 6l-83 12q-84 13 -130 54q-55 49 -55 134 q0 45 16 82t45.5 63.5t71.5 40.5t95 14q68 0 117 -19t95 -59l-49 -49q-32 31 -71 46.5t-95 15.5q-72 0 -111.5 -36.5t-39.5 -96.5q0 -55 32 -83q17 -14 41 -23t52 -14l83 -13q49 -8 77 -18.5t52 -32.5q29 -25 44.5 -60t15.5 -80zM323 780h-68l-125 153h69l90 -104l91 104h69 z"/>
<glyph glyph-name="scaron" horiz-adv-x="496" unicode="š" d="M445 144q0 -71 -55 -110.5t-145 -39.5q-63 0 -112.5 16t-89.5 55l48 48q29 -30 68 -43.5t85 -13.5q62 0 96.5 21.5t34.5 65.5q0 33 -19 50.5t-63 21.5l-81 7q-72 6 -109.5 38t-37.5 94q0 34 13.5 60.5t37.5 45t57 28.5t73 10q54 0 98.5 -13t78.5 -40l-47 -47 q-26 20 -59.5 29.5t-71.5 9.5q-54 0 -82 -21.5t-28 -59.5q0 -33 21 -50t67 -22l77 -7q32 -3 59 -11t46 -23.5t29.5 -39.5t10.5 -59zM280 594h-68l-126 153h69l91 -105l90 105h69z"/>
<glyph glyph-name="Ydieresis" horiz-adv-x="514" unicode="Ÿ" d="M296 294v-294h-76v294l-212 418h82l168 -341l166 341h82zM116 789v89h72v-89h-72zM328 789v89h72v-89h-72z"/>
<glyph glyph-name="circumflex" horiz-adv-x="500" unicode="ˆ" d="M342 594l-91 104l-90 -104h-69l125 153h68l126 -153h-69z"/>
<glyph glyph-name="tilde" horiz-adv-x="530" unicode="˜" d="M422 658q-17 -17 -30.5 -27.5t-25 -15.5t-21 -6.5t-18.5 -1.5q-21 0 -37 6.5t-34 17.5q-14 8 -27.5 14t-28.5 6q-13 0 -25 -5t-34 -27l-37 36q17 17 30.5 27t25 15.5t21 7t18.5 1.5q22 0 37 -6t34 -18q16 -9 28.5 -14.5t27.5 -5.5q6 0 11.5 1t12.5 4t15.5 9.5t19.5 17.5z "/>
<glyph glyph-name="uni0394" horiz-adv-x="603" unicode="Δ" d="M302 603l-194 -537h387zM8 0l262 712h63l261 -712h-586z"/>
<glyph glyph-name="uni03BC" horiz-adv-x="561" unicode="μ" d="M399 0v55q-53 -61 -138 -61q-66 0 -106 37v-251h-72v712h72v-303q0 -66 32.5 -98.5t88.5 -32.5t89.5 33t33.5 98v303h72v-492h-72z"/>
<glyph glyph-name="pi" horiz-adv-x="564" unicode="π" d="M410 0v427h-250v-427h-70v492h389v-492h-69z"/>
<glyph glyph-name="endash" d="M52 236v67h418v-67h-418z" unicode="–"/>
<glyph glyph-name="emdash" horiz-adv-x="914" unicode="—" d="M76 236v68h762v-68h-762z"/>
<glyph glyph-name="quoteleft" horiz-adv-x="263" unicode="‘" d="M88 628v84l87 79v-163h-87z"/>
<glyph glyph-name="quotesinglbase" horiz-adv-x="263" unicode="‚" d="M88 -79v163h87v-84z"/>
<glyph glyph-name="quotedblleft" horiz-adv-x="434" unicode="“" d="M88 628v84l87 79v-163h-87zM258 628v84l88 79v-163h-88z"/>
<glyph glyph-name="quotedblright" horiz-adv-x="434" unicode="”" d="M88 549v163h87v-84zM258 549v163h88v-84z"/>
<glyph glyph-name="dagger" horiz-adv-x="605" unicode="†" d="M337 445v-445h-72v445h-191v64h191v203h72v-203h194v-64h-194z"/>
<glyph glyph-name="daggerdbl" horiz-adv-x="605" unicode="‡" d="M337 -16v-204h-72v204h-191v64h191v397h-191v64h191v203h72v-203h194v-64h-194v-397h194v-64h-194z"/>
<glyph glyph-name="ellipsis" horiz-adv-x="757" unicode="…" d="M332 0v92h92v-92h-92zM88 0v92h92v-92h-92zM577 0v92h92v-92h-92z"/>
<glyph glyph-name="perthousand" horiz-adv-x="1179" unicode="‰" d="M278 582q0 40 -18.5 63.5t-59.5 23.5q-42 0 -60 -23t-18 -64v-101q0 -41 18.5 -63.5t59.5 -22.5t59.5 23t18.5 63v101zM1058 231q0 40 -18.5 63.5t-59.5 23.5q-42 0 -60 -23t-18 -64v-101q0 -41 18 -64t60 -23q41 0 59.5 23.5t18.5 63.5v101zM712 231q0 40 -18.5 63.5 t-59.5 23.5q-42 0 -60 -23t-18 -64v-101q0 -41 18 -64t60 -23q41 0 59.5 23.5t18.5 63.5v101zM280 0h-60l334 712h60zM335 479q0 -61 -38.5 -97.5t-96.5 -36.5q-59 0 -97 36.5t-38 97.5v105q0 62 38 98.5t97 36.5q58 0 96.5 -36.5t38.5 -98.5v-105zM769 128 q0 -62 -38.5 -98.5t-96.5 -36.5q-59 0 -97 36.5t-38 98.5v105q0 62 38 98.5t97 36.5q58 0 96.5 -36.5t38.5 -98.5v-105zM1115 128q0 -62 -38.5 -98.5t-96.5 -36.5q-59 0 -97 36.5t-38 98.5v105q0 62 38 98.5t97 36.5q58 0 96.5 -36.5t38.5 -98.5v-105z"/>
<glyph glyph-name="guilsinglleft" horiz-adv-x="328" unicode="‹" d="M40 268l210 210v-90l-120 -120l120 -121v-89z"/>
<glyph glyph-name="guilsinglright" horiz-adv-x="328" unicode="›" d="M78 58v89l121 121l-121 120v90l210 -210z"/>
<glyph glyph-name="fraction" horiz-adv-x="185" unicode="⁄" d="M-44 0h-60l333 712h60z"/>
<glyph glyph-name="Euro" horiz-adv-x="678" unicode="€" d="M608 206q-9 -50 -30.5 -89.5t-54 -66.5t-73.5 -41.5t-89 -14.5q-55 0 -99.5 18.5t-77.5 51.5q-19 19 -32 38.5t-21 42t-12 50.5t-5 65h-67v50h66v98h-66v49h67q1 35 5.5 62.5t12.5 49.5t20.5 41t31.5 38q33 33 77.5 51.5t99.5 18.5q98 0 163.5 -56t83.5 -156h-77 q-14 66 -58 105t-112 39q-73 0 -123 -50q-12 -13 -20.5 -26.5t-14 -30.5t-8.5 -38t-4 -48h219v-49h-221v-98h221v-50h-219q2 -57 11.5 -90t35.5 -58q50 -50 123 -50q68 0 112.5 39t59.5 105h75z"/>
<glyph glyph-name="trademark" horiz-adv-x="839" unicode="™" d="M212 659v-374h-58v374h-118v53h295v-53h-119zM724 285v308l-102 -202h-56l-102 202v-308h-58v427h58l130 -259l130 259h57v-427h-57z"/>
<glyph glyph-name="arrowleft" horiz-adv-x="1027" unicode="←" d="M56 269l399 399h94l-365 -364h789v-70h-789l365 -364h-94z"/>
<glyph glyph-name="arrowup" horiz-adv-x="1027" unicode="↑" d="M514 727l399 -399v-94l-364 365v-789h-70v789l-364 -365v94z"/>
<glyph glyph-name="arrowright" horiz-adv-x="1027" unicode="→" d="M845 234h-789v70h789l-365 364h94l399 -399l-399 -399h-94z"/>
<glyph glyph-name="arrowdown" horiz-adv-x="1027" unicode="↓" d="M514 -191l-399 399v94l364 -365v789h70v-789l364 365v-94z"/>
<glyph glyph-name="partialdiff" horiz-adv-x="544" unicode="∂" d="M381 244q0 21 -1 42t-5 40.5t-11 37t-20 31.5q-34 36 -84 36q-51 0 -85 -36q-13 -14 -20.5 -31.5t-11 -37t-4.5 -40.5t-1 -42t1 -42t4.5 -40.5t11 -37t20.5 -30.5q34 -36 85 -36q50 0 84 36q13 13 20 30.5t11 37t5 40.5t1 42zM453 244q0 -57 -10.5 -107t-46.5 -88 q-24 -26 -58 -40.5t-78 -14.5t-78.5 14.5t-58.5 40.5q-36 38 -46.5 88t-10.5 107q0 61 10.5 111t46.5 87q20 21 53 37t77 16q36 0 67.5 -11.5t60.5 -46.5v70q0 30 -7.5 57t-24 47.5t-42 32.5t-61.5 12q-21 0 -37 -3.5t-29.5 -9.5t-26 -15.5t-25.5 -21.5l-46 46 q19 18 37 30.5t37.5 20.5t41.5 11.5t50 3.5q50 0 88.5 -16t64.5 -44.5t39 -68t13 -87.5v-258z"/>
<glyph glyph-name="Delta" horiz-adv-x="603" unicode="∆" d="M302 603l-194 -537h387zM8 0l262 712h63l261 -712h-586z"/>
<glyph glyph-name="product" horiz-adv-x="696" unicode="∏" d="M517 -220v912h-338v-912h-76v980h490v-980h-76z"/>
<glyph glyph-name="summation" horiz-adv-x="551" unicode="∑" d="M57 -220v65l202 438l-201 413v64h441v-68h-353l180 -375v-69l-182 -400h356v-68h-443z"/>
<glyph glyph-name="minus" d="M52 236v67h418v-67h-418z" unicode="−"/>
<glyph glyph-name="radical" horiz-adv-x="562" unicode="√" d="M443 644l-211 -644h-61l-163 492h79l115 -356l184 576h146v-68h-89z"/>
<glyph glyph-name="infinity" horiz-adv-x="808" unicode="∞" d="M671 266q0 42 -25.5 67.5t-66.5 25.5q-37 0 -66 -25.5t-64 -67.5q35 -42 64 -67.5t66 -25.5q41 0 66.5 25.5t25.5 67.5zM358 266q-35 42 -63.5 68t-65.5 26q-41 0 -67 -26t-26 -68t26 -67.5t67 -25.5q37 0 65.5 25.5t63.5 67.5zM740 267q0 -34 -11 -63t-32 -50.5 t-50 -33.5t-65 -12q-26 0 -49 6t-44 19t-42 32.5t-43 46.5q-44 -54 -85 -79.5t-92 -25.5q-36 0 -65.5 12.5t-50.5 34t-32.5 50.5t-11.5 63t11.5 63t32.5 50.5t50.5 34t65.5 12.5q50 0 91 -26t86 -80q45 54 85 80t93 26q36 0 65 -12.5t50 -34t32 -50.5t11 -63z"/>
<glyph glyph-name="approxequal" horiz-adv-x="539" unicode="≈" d="M490 366q-21 -21 -37.5 -34.5t-31 -21t-29 -10t-31.5 -2.5q-26 0 -51.5 9.5t-54.5 22.5q-21 10 -39.5 16.5t-38.5 6.5q-11 0 -19.5 -1.5t-18 -6t-20.5 -13t-26 -23.5l-44 44q21 21 37.5 34.5t31 21t29 10.5t31.5 3q23 0 46 -7.5t59 -24.5q21 -10 39.5 -16.5t38.5 -6.5 q10 0 19 1.5t18.5 6t20.5 13t26 23.5zM490 189q-21 -21 -37.5 -34.5t-31 -21t-29 -10t-31.5 -2.5q-26 0 -51.5 9t-54.5 22q-29 14 -44.5 19t-32.5 5q-11 0 -19.5 -1.5t-18 -6.5t-20.5 -13.5t-26 -23.5l-45 45q21 21 37.5 34t31 20.5t29 10.5t31.5 3q23 0 46 -7t60 -24 q19 -9 30.5 -13.5t20 -7t14 -3t12.5 -0.5q10 0 19 1.5t18.5 6.5t20.5 13.5t26 23.5z"/>
<glyph glyph-name="notequal" horiz-adv-x="537" unicode="≠" d="M201 151l-103 -111l-46 40l67 71h-67v66h126l99 103h-225v67h284l104 111l45 -41l-67 -70h67v-67h-126l-98 -103h224v-66h-284z"/>
<glyph glyph-name="lessequal" d="M95 152v77l331 -168v-77zM95 302v65l331 168v-77l-250 -124l250 -123v-77z" unicode="≤"/>
<glyph glyph-name="greaterequal" d="M95 -16v77l331 168v-77zM95 134v77l250 123l-250 124v77l331 -168v-65z" unicode="≥"/>
<glyph glyph-name="dotmath" d="M214 223v94h94v-94h-94z" unicode="⋅"/>
<glyph glyph-name="lozenge" horiz-adv-x="649" unicode="◊" d="M325 605l-177 -253l177 -255l176 255zM325 -12l-258 364l258 364l257 -364z"/>
<glyph glyph-name="fi" horiz-adv-x="562" unicode="ﬁ" d="M178 437v-437h-72v437h-63v55h63v90q0 27 7.5 51t23.5 42t39 28.5t55 10.5h52v-62h-39q-35 0 -50.5 -19t-15.5 -53v-88h105v-55h-105zM396 632v81h81v-81h-81zM400 0v492h72v-492h-72z"/>
<glyph glyph-name="fl" horiz-adv-x="602" unicode="ﬂ" d="M178 437v-437h-72v437h-63v55h63v90q0 27 7.5 51t23.5 42t39 28.5t55 10.5h52v-62h-39q-35 0 -50.5 -19t-15.5 -53v-88h105v-55h-105zM521 0q-65 0 -95 37.5t-30 93.5v581h72v-578q0 -36 14 -54t52 -18h39v-62h-52z"/>
<glyph glyph-name="grave.lc" d="M236 594l-105 153h83l91 -153h-69z" horiz-adv-x="530"/>
<glyph glyph-name="dieresis.lc" d="M123 602v89h72v-89h-72zM335 602v89h72v-89h-72z" horiz-adv-x="530"/>
<glyph glyph-name="acute.lc" d="M284 594h-69l91 153h83z" horiz-adv-x="530"/>
<glyph glyph-name="circumflex.lc" d="M356 594l-91 104l-90 -104h-69l125 153h68l126 -153h-69z" horiz-adv-x="530"/>
<glyph glyph-name="caron.lc" d="M270 594h-68l-126 153h69l91 -105l90 105h69z" horiz-adv-x="459"/>
<glyph glyph-name="ring.lc" d="M321 687q0 29 -20 48.5t-49 19.5t-49 -19.5t-20 -48.5t20 -49t49 -20t49 20t20 49zM370 687q0 -24 -9.5 -46t-25.5 -38t-37.5 -25.5t-45.5 -9.5t-45.5 9.5t-37.5 25.5t-25.5 38t-9.5 46t9.5 45.5t25.5 37.5t37.5 25.5t45.5 9.5t45.5 -9t37.5 -25t25.5 -37.5t9.5 -46.5z " horiz-adv-x="526"/>
<glyph glyph-name="tilde.lc" d="M422 658q-17 -17 -30.5 -27.5t-25 -15.5t-21 -6.5t-18.5 -1.5q-21 0 -37 6.5t-34 17.5q-14 8 -27.5 14t-28.5 6q-13 0 -25 -5t-34 -27l-37 36q17 17 30.5 27t25 15.5t21 7t18.5 1.5q22 0 37 -6t34 -18q16 -9 28.5 -14.5t27.5 -5.5q6 0 11.5 1t12.5 4t15.5 9.5t19.5 17.5z " horiz-adv-x="530"/>
<glyph glyph-name="grave.uc" d="M307 780l-105 154h83l91 -154h-69z" horiz-adv-x="650"/>
<glyph glyph-name="dieresis.uc" d="M183 789v89h72v-89h-72zM395 789v89h72v-89h-72z" horiz-adv-x="650"/>
<glyph glyph-name="acute.uc" d="M343 780h-69l91 154h83z" horiz-adv-x="650"/>
<glyph glyph-name="circumflex.uc" d="M415 780l-90 105l-91 -105h-69l126 153h68l125 -153h-69z" horiz-adv-x="650"/>
<glyph glyph-name="caron.uc" d="M318 780h-68l-125 153h69l90 -104l91 104h69z" horiz-adv-x="556"/>
<glyph glyph-name="ring.uc" d="M319 867q0 29 -20 48.5t-49 19.5t-49 -19.5t-20 -48.5t20 -49t49 -20t49 20t20 49zM368 867q0 -24 -9.5 -46t-25.5 -38t-37.5 -25.5t-45.5 -9.5t-45.5 9.5t-37.5 25.5t-25.5 38t-9.5 46t9.5 45.5t25.5 37.5t37.5 25.5t45.5 9.5t45.5 -9t37.5 -25t25.5 -37.5t9.5 -46.5z " horiz-adv-x="500"/>
<glyph glyph-name="tilde.uc" d="M482 844q-17 -17 -31 -27t-25 -15t-20.5 -6.5t-18.5 -1.5q-22 0 -37.5 6t-33.5 17q-14 8 -27.5 14.5t-28.5 6.5q-13 0 -25 -5t-34 -27l-37 36q17 17 30.5 27t25 15.5t21 7t18.5 1.5q22 0 37 -6t34 -18q16 -10 28.5 -15t27.5 -5q6 0 11.5 1t12.5 4t15.5 9.5t19.5 17.5z " horiz-adv-x="650"/>
</font>
</defs>
</svg>
